<svg width="728" height="862" viewBox="0 0 728 862" fill="none" xmlns="http://www.w3.org/2000/svg">
<path fill-rule="evenodd" clip-rule="evenodd" d="M366.907 142.032C261.86 68.8953 90.9025 22.0695 -28.6458 0.121959L-54.1061 138.804C61.8981 160.101 207.439 202.814 286.343 257.748C327.211 286.202 331.101 304.328 331.044 309.064C330.986 313.93 326.415 341.341 257.745 387.342C180.739 438.926 120.766 505.244 131.65 587.733C136.857 627.197 157.658 658.852 181.405 682.838C205.044 706.715 234.779 726.327 265.775 742.638C386.996 806.428 576.801 844.535 709.993 861.151L727.449 721.236C597.295 704.999 428.91 669.153 331.437 617.86C307.761 605.401 291.54 593.672 281.605 583.636C276.804 578.787 274.181 575.043 272.816 572.587C272.153 571.394 271.813 570.554 271.643 570.058C271.478 569.577 271.445 569.338 271.438 569.29C271.433 569.249 271.425 569.186 271.437 569.021C271.451 568.849 271.503 568.358 271.75 567.489C272.246 565.74 273.67 561.983 277.677 556.194C286.094 544.034 303.443 526.442 336.218 504.487C414.868 451.801 471.107 388.217 472.034 310.752C472.963 233.156 418.014 177.614 366.907 142.032Z" fill="#FF9A84" fill-opacity="0.2"/>
</svg>
