<svg width="883" height="600" viewBox="0 0 883 600" fill="none" xmlns="http://www.w3.org/2000/svg">
<path fill-rule="evenodd" clip-rule="evenodd" d="M483.051 11.3849C591.157 -60.3217 765.386 -103.75 886.966 -123.162L909.473 18.1855C791.497 37.0218 643.104 76.8845 561.903 130.745C519.845 158.642 515.478 176.944 515.424 181.752C515.368 186.691 519.348 214.617 587.802 262.944C664.564 317.136 723.73 385.872 710.761 469.324C704.556 509.248 682.743 540.875 658.129 564.648C633.626 588.313 603.051 607.504 571.277 623.315C447.015 685.149 253.905 719.279 118.634 732.954L-1.16693e-06 623.315C132.186 609.952 407.812 544.837 507.731 495.116C532.002 483.039 548.705 471.524 559.003 461.577C563.979 456.771 566.724 453.034 568.164 450.575C568.864 449.38 569.228 448.536 569.411 448.037C569.59 447.552 569.63 447.311 569.637 447.262C569.644 447.22 569.653 447.156 569.645 446.989C569.635 446.814 569.594 446.315 569.365 445.427C568.904 443.64 567.55 439.793 563.629 433.822C555.393 421.28 538.24 403.013 505.568 379.948C427.167 324.598 371.717 258.726 372.608 180.09C373.5 101.322 430.457 46.2711 483.051 11.3849Z" fill="#FF5D39"/>
</svg>
