<svg width="512" height="405" viewBox="0 0 512 405" fill="none" xmlns="http://www.w3.org/2000/svg">
<path fill-rule="evenodd" clip-rule="evenodd" d="M194.314 -2.27068C107.955 -52.3559 -27.907 -77.6874 -122.213 -87L-133 22.5639C-41.4898 31.6005 74.358 55.3824 139.225 93.0026C172.822 112.488 177.02 126.339 177.283 130.028C177.554 133.819 175.78 155.444 125.41 195.698C68.927 240.839 26.6319 296.336 40.4378 359.815C47.0427 390.184 65.2574 413.464 85.2631 430.586C105.178 447.629 129.552 460.958 154.693 471.637C253.011 513.398 402.951 530.722 507.513 535L512 424.997C409.824 420.816 276.674 403.861 197.616 370.281C178.412 362.124 165.049 354.051 156.679 346.887C152.635 343.426 150.354 340.683 149.134 338.861C148.541 337.975 148.223 337.344 148.059 336.969C147.9 336.606 147.858 336.422 147.85 336.385C147.843 336.353 147.833 336.304 147.832 336.175C147.831 336.04 147.84 335.655 147.975 334.963C148.247 333.57 149.11 330.554 151.848 325.789C157.598 315.781 169.937 300.966 193.978 281.753C251.667 235.649 291.238 182.521 286.934 122.184C282.623 61.7458 236.329 22.0965 194.314 -2.27068Z" fill="#FF5D39" fill-opacity="0.2"/>
</svg>
