<svg width="411" height="58" viewBox="0 0 411 58" fill="none" xmlns="http://www.w3.org/2000/svg">
<path d="M2.12112 49.0427C1.89092 49.9664 1.33186 50.4283 0.443955 50.4283C0.147985 50.4283 0 50.2304 0 49.8345C0.0328855 49.6365 0.065771 49.4221 0.0986565 49.1911C0.131542 48.9932 0.164428 48.7787 0.197313 48.5478L2.12112 36.5222C2.64729 33.5859 3.22278 30.6991 3.84761 27.8618C4.47243 24.9915 5.13015 22.1047 5.82074 19.2014C5.95229 18.6405 6.08383 18.0631 6.21537 17.4693C6.34691 16.8754 6.47845 16.2981 6.61 15.7372C6.67577 15.5722 6.70865 15.4073 6.70865 15.2423C6.74154 15.0444 6.79087 14.8629 6.85664 14.698C6.95529 14.302 7.18549 14.1041 7.54723 14.1041C7.64589 14.1041 7.72811 14.1206 7.79388 14.1536C7.9583 14.2196 8.08985 14.2856 8.1885 14.3515C8.32004 14.4175 8.46803 14.4835 8.63246 14.5495C8.82977 14.6815 8.8791 14.8794 8.78044 15.1433C8.4187 16.7929 8.05696 18.4261 7.69522 20.0427C7.33348 21.6263 6.95529 23.2264 6.56067 24.843C6.36335 25.5688 6.19893 26.2947 6.06738 27.0205C5.93584 27.7133 5.78786 28.4226 5.62343 29.1485C5.19592 31.3259 4.80129 33.5034 4.43955 35.6809C4.43955 35.7139 4.47243 35.7964 4.53821 35.9283C4.63686 35.9943 4.73552 35.9778 4.83418 35.8788C6.08383 34.8231 7.33348 33.7014 8.58313 32.5137C9.86567 31.2929 11.1153 30.0392 12.3321 28.7526C13.5817 27.4659 14.7821 26.1792 15.9331 24.8925C17.1169 23.5728 18.2515 22.2861 19.3367 21.0324C20.0273 20.2076 20.7015 19.3828 21.3592 18.558C22.0169 17.7002 22.5924 16.7929 23.0857 15.8362C23.2172 15.7042 23.3323 15.6382 23.431 15.6382C23.6612 15.6382 23.8585 15.7702 24.0229 16.0341C24.2202 16.2981 24.3682 16.5125 24.4669 16.6775C24.5655 16.8754 24.5326 17.1064 24.3682 17.3703C24.2367 17.6013 24.1051 17.8322 23.9736 18.0631C23.8749 18.2611 23.7434 18.459 23.5789 18.657C20.9481 22.1871 18.1364 25.5028 15.1438 28.6041C12.1512 31.7053 8.97776 34.6911 5.62343 37.5614C5.36034 37.7924 5.21236 37.9738 5.17947 38.1058C5.14659 38.2048 5.21236 38.3532 5.37679 38.5512C5.96873 39.277 6.51134 40.0193 7.00462 40.7782C7.53079 41.537 8.10629 42.2628 8.73111 42.9556C9.38883 43.7145 10.063 44.4073 10.7536 45.0341C11.4771 45.661 12.2663 46.2383 13.1213 46.7662C13.3186 46.8322 13.4666 46.9312 13.5653 47.0631C13.7297 47.1951 13.7133 47.3601 13.516 47.558C13.0556 48.0199 12.5952 48.2509 12.1348 48.2509C11.9046 48.2509 11.6579 48.1684 11.3948 48.0034C9.91499 47.2116 8.69823 46.2713 7.74455 45.1826C6.82375 44.0609 5.88651 42.8237 4.93283 41.471C4.80129 41.273 4.65331 41.0751 4.48888 40.8771C4.35734 40.6792 4.20935 40.4977 4.04492 40.3328C4.01204 40.2998 3.92982 40.2833 3.79828 40.2833L3.60097 40.4812C3.56808 40.6792 3.5352 40.8771 3.50231 41.0751C3.46943 41.273 3.43654 41.471 3.40365 41.6689C3.17346 42.9226 2.9597 44.1598 2.76239 45.3805C2.53219 46.5683 2.31843 47.789 2.12112 49.0427Z" fill="#FF5D39"/>
<path d="M23.2837 41.2235C23.0207 41.4875 22.7082 41.7844 22.3465 42.1143C22.0176 42.4443 21.6559 42.7577 21.2613 43.0546C20.8667 43.3185 20.4556 43.5495 20.0281 43.7474C19.6006 43.9454 19.1895 44.0444 18.7949 44.0444C18.17 44.0444 17.6768 43.8629 17.315 43.5C16.9533 43.1371 16.7888 42.6257 16.8217 41.9659C16.8217 41.0091 17.0355 40.0028 17.463 38.9471C17.8576 37.8584 18.4002 36.7036 19.0908 35.4829C19.7814 34.2292 20.5871 33.091 21.5079 32.0683C22.4616 31.0455 23.4975 30.2042 24.6156 29.5444C25.7666 28.8515 26.9998 28.5051 28.3152 28.5051C29.3676 28.5051 30.2884 28.7526 31.0776 29.2474C31.3736 29.4454 31.5709 29.5444 31.6696 29.5444C31.7682 29.5444 31.8669 29.4949 31.9655 29.3959C32.0971 29.2969 32.2615 29.165 32.4588 29C32.8534 28.5711 33.2481 28.1422 33.6427 27.7133C34.0373 27.2844 34.4648 26.8885 34.9252 26.5256C35.4843 26.0637 35.9282 25.8328 36.2571 25.8328C36.4215 25.8328 36.5695 25.8658 36.701 25.9317C36.8655 25.9977 37.0463 26.0802 37.2437 26.1792C37.8356 26.5421 38.0165 27.0535 37.7863 27.7133C37.6218 28.2742 37.4574 28.835 37.293 29.3959C37.1286 29.9238 36.9641 30.4681 36.7997 31.029C36.438 32.1507 36.0762 33.2725 35.7145 34.3942C35.3856 35.4829 35.0403 36.6047 34.6786 37.7594C34.2511 39.178 33.8729 40.5967 33.544 42.0154C33.2152 43.401 32.9685 44.8197 32.8041 46.2713C32.6397 47.69 32.6068 49.0262 32.7055 50.2799C32.7055 50.4778 32.7219 50.6758 32.7548 50.8737C32.7877 51.0717 32.837 51.2861 32.9028 51.5171C32.9685 51.847 33.1001 51.979 33.2974 51.913C33.4947 51.88 33.7578 51.6985 34.0866 51.3686C34.4155 51.0387 34.7608 50.6593 35.1225 50.2304C35.4843 49.8345 35.8131 49.4386 36.1091 49.0427C36.4051 48.6797 36.6188 48.4158 36.7504 48.2509C37.7041 46.8982 38.6577 45.562 39.6114 44.2423C40.598 42.9226 41.5845 41.603 42.5711 40.2833C42.9329 39.7224 43.311 39.1945 43.7057 38.6997C44.1003 38.1718 44.4949 37.6439 44.8896 37.116C45.2513 36.6542 45.6624 36.4232 46.1228 36.4232C46.4845 36.4232 46.8134 36.5717 47.1093 36.8686C47.208 36.9676 47.208 37.0995 47.1093 37.2645C47.0764 37.3305 47.0436 37.3965 47.0107 37.4625C46.9778 37.5284 46.9285 37.5944 46.8627 37.6604C45.4815 39.475 44.1496 41.306 42.8671 43.1536C41.5845 45.0011 40.2198 46.8157 38.7728 48.5973C38.444 48.9932 38.1316 49.3891 37.8356 49.785C37.5396 50.1809 37.2108 50.5603 36.849 50.9232C36.3557 51.4511 35.7803 51.9625 35.1225 52.4573C34.4977 52.9852 33.7907 53.2327 33.0014 53.1997C31.7847 53.1997 31.0612 52.6553 30.831 51.5666C30.6994 51.0057 30.6172 50.4283 30.5843 49.8345C30.5514 49.2736 30.5514 48.6962 30.5843 48.1024C30.7488 45.397 31.1927 42.7412 31.9162 40.1348C32.6397 37.5284 33.4289 34.9551 34.284 32.4147C34.4484 31.9198 34.5964 31.4414 34.7279 30.9795C34.8595 30.4846 35.0074 30.0063 35.1719 29.5444C35.2376 29.3464 35.1883 29.2309 35.0239 29.198C34.9252 29.198 34.843 29.2474 34.7772 29.3464C34.3826 29.6763 34.0209 30.0392 33.692 30.4352C31.9491 32.2827 30.2226 34.0973 28.5125 35.8788C26.8025 37.6604 25.0596 39.442 23.2837 41.2235ZM18.7949 42.0154C18.7949 42.2793 18.8771 42.4113 19.0415 42.4113C19.2388 42.4113 19.6334 42.1638 20.2254 41.6689C20.8173 41.1741 21.4915 40.5472 22.2478 39.7884C23.0371 38.9966 23.8592 38.1553 24.7143 37.2645C25.6022 36.3407 26.4243 35.4664 27.1807 34.6416C27.9699 33.8168 28.6441 33.091 29.2031 32.4642C29.7622 31.8373 30.1239 31.4249 30.2884 31.227C30.4857 31.029 30.5514 30.7981 30.4857 30.5341C30.3541 29.9403 29.976 29.6433 29.3511 29.6433C28.0357 29.6433 26.8025 30.0393 25.6515 30.8311C24.5334 31.6229 23.5139 32.6126 22.5931 33.8003C21.7052 34.9551 20.9489 36.2088 20.324 37.5614C19.6992 38.8811 19.2388 40.0853 18.9428 41.1741C18.8771 41.438 18.8442 41.636 18.8442 41.7679C18.8113 41.8009 18.7949 41.8834 18.7949 42.0154Z" fill="#FF5D39"/>
<path d="M45.4283 35.9283C45.3954 35.5324 45.379 35.1365 45.379 34.7406C45.4119 34.3117 45.4448 33.8993 45.4776 33.5034C45.5434 32.2827 45.7243 30.996 46.0202 29.6433C46.3162 28.2577 46.7437 27.004 47.3028 25.8823C47.4343 25.6183 47.681 25.4863 48.0427 25.4863C48.4045 25.4863 48.7497 25.6018 49.0786 25.8328C49.2759 25.9647 49.3252 26.1627 49.2266 26.4266C48.6018 27.7463 48.1743 29.1155 47.9441 30.5341C47.7139 31.9198 47.5165 33.3385 47.3521 34.7901C47.3521 34.9551 47.3521 35.12 47.3521 35.285C47.3521 35.417 47.385 35.5654 47.4508 35.7304C47.4508 35.8294 47.5001 35.8788 47.5988 35.8788C47.6974 35.8788 47.8454 35.7964 48.0427 35.6314C48.2729 35.4334 48.4209 35.3015 48.4867 35.2355C48.9471 34.7736 49.391 34.3282 49.8185 33.8993C50.246 33.4374 50.6736 32.9755 51.1011 32.5137C51.9232 31.6559 52.7289 30.7981 53.5182 29.9403C54.3403 29.0825 55.1624 28.2247 55.9846 27.3669C56.2477 27.103 56.5107 26.8555 56.7738 26.6246C57.0369 26.3606 57.3 26.0967 57.5631 25.8328C58.0235 25.4699 58.5168 25.2884 59.0429 25.2884C59.6678 25.2884 60.161 25.5193 60.5228 25.9812C60.6214 26.1462 60.6708 26.3111 60.6708 26.4761C60.6708 26.6081 60.6543 26.7565 60.6214 26.9215C60.4899 27.4494 60.3583 27.9608 60.2268 28.4556C60.1282 28.9505 60.0131 29.4619 59.8815 29.9898C59.5527 31.2435 59.2238 32.4972 58.8949 33.7509C58.599 34.9716 58.3359 36.2088 58.1057 37.4625C57.9413 38.3532 57.8426 39.2275 57.8097 40.0853C57.7768 40.9431 57.7768 41.8009 57.8097 42.6587C57.8097 42.7577 57.8097 42.9556 57.8097 43.2526C57.8426 43.5165 57.8919 43.8134 57.9577 44.1433C58.0235 44.4403 58.1057 44.7042 58.2043 44.9352C58.303 45.1661 58.4345 45.2816 58.599 45.2816C58.7305 45.2816 58.9278 45.1826 59.1909 44.9846C59.454 44.7537 59.7335 44.5063 60.0295 44.2423C60.3255 43.9784 60.5886 43.7144 60.8187 43.4505C61.0818 43.1536 61.2627 42.9556 61.3614 42.8567C62.0191 42.0978 62.6603 41.339 63.2852 40.5802C63.91 39.7884 64.5348 39.0131 65.1596 38.2543C65.3241 38.0893 65.4721 37.9079 65.6036 37.7099C65.768 37.5119 65.916 37.3305 66.0476 37.1655C66.4751 36.6047 66.9026 36.3242 67.3301 36.3242C67.4945 36.3242 67.6425 36.3572 67.774 36.4232C67.9385 36.4562 68.1358 36.5057 68.366 36.5717C68.4318 36.6377 68.4646 36.7531 68.4646 36.9181C68.4317 37.0171 68.1522 37.3965 67.6261 38.0563C67.0999 38.6832 66.5079 39.3925 65.8502 40.1843C65.2254 40.9761 64.617 41.7184 64.0251 42.4113C63.4331 43.1041 63.055 43.5495 62.8905 43.7474C62.3973 44.3413 61.756 44.9516 60.9667 45.5785C60.2104 46.2053 59.4047 46.5188 58.5496 46.5188C57.8919 46.5188 57.3164 46.3208 56.8232 45.9249C56.3628 45.529 56.0668 44.9681 55.9352 44.2423C55.6722 42.6257 55.6393 41.0256 55.8366 39.442C55.9024 38.9141 55.9846 38.4027 56.0832 37.9079C56.1819 37.38 56.2805 36.8356 56.3792 36.2747C56.5436 35.021 56.7903 33.8003 57.1191 32.6126C57.448 31.3919 57.7604 30.1547 58.0564 28.901C58.0892 28.802 58.1057 28.7196 58.1057 28.6536C58.1386 28.5546 58.1715 28.4556 58.2043 28.3567C58.2701 28.1257 58.2372 28.0102 58.1057 28.0102C57.9741 28.0102 57.8426 28.0762 57.7111 28.2082C57.5466 28.3402 57.3986 28.4721 57.2671 28.6041C57.1356 28.7361 56.9876 28.8845 56.8232 29.0495L52.8276 33.3549C52.2027 34.0148 51.5779 34.6581 50.9531 35.285C50.3611 35.9118 49.7199 36.5057 49.0293 37.0666C48.536 37.4625 47.9934 37.6604 47.4014 37.6604C46.9082 37.6604 46.4642 37.5119 46.0696 37.215C45.6749 36.9181 45.4612 36.4892 45.4283 35.9283Z" fill="#FF5D39"/>
<path d="M66.125 42.4608C65.9277 41.0751 66.0099 39.5245 66.3716 37.8089C66.5361 37.6109 66.5854 37.3965 66.5196 37.1655C66.4867 36.9016 66.5361 36.6377 66.6676 36.3737C67.1609 35.417 67.6542 34.4602 68.1475 33.5034C68.6408 32.5466 69.2162 31.6229 69.874 30.7321C70.2357 30.2702 70.6468 29.7918 71.1072 29.2969C71.6004 28.7691 72.1102 28.2742 72.6363 27.8123C73.1954 27.3504 73.7709 26.971 74.3628 26.6741C74.9877 26.3771 75.596 26.2287 76.188 26.2287C76.6484 26.2287 77.043 26.3276 77.3719 26.5256C77.7336 26.7236 78.0296 26.9875 78.2598 27.3174C78.49 27.6143 78.6215 27.9772 78.6544 28.4061C78.7202 28.835 78.6544 29.2804 78.4571 29.7423C78.0953 30.6331 77.5692 31.4744 76.8786 32.2662C76.2209 33.058 75.4645 33.7838 74.6095 34.4437C73.7873 35.0705 72.9159 35.6314 71.9951 36.1263C71.0743 36.6212 70.1864 37.0006 69.3314 37.2645C68.9696 37.3635 68.7065 37.5119 68.5421 37.7099C68.3777 37.9079 68.2626 38.1718 68.1968 38.5017C67.8351 40.0523 67.7528 41.5205 67.9502 42.9061C68.0817 44.0609 68.5092 44.6382 69.2327 44.6382C69.7917 44.6382 70.4166 44.4733 71.1072 44.1433C71.7978 43.8134 72.4719 43.4175 73.1296 42.9556C73.8202 42.4608 74.4615 41.9494 75.0534 41.4215C75.6454 40.8936 76.1387 40.4482 76.5333 40.0853C77.1252 39.5245 77.7007 38.9636 78.2598 38.4027C78.8517 37.8089 79.4437 37.2315 80.0356 36.6707C80.5289 36.2088 80.9399 35.9778 81.2688 35.9778C81.4332 35.9778 81.5812 36.0108 81.7128 36.0768C81.8443 36.1428 82.0087 36.2418 82.206 36.3737C82.502 36.6047 82.502 36.8686 82.206 37.1655C80.6933 38.6832 79.1477 40.1843 77.5692 41.6689C77.0759 42.0978 76.5333 42.5597 75.9413 43.0546C75.3823 43.5495 74.7739 43.9949 74.1162 44.3908C73.4585 44.7867 72.7843 45.1166 72.0937 45.3805C71.436 45.6445 70.7619 45.7765 70.0713 45.7765C69.0518 45.7765 68.1804 45.496 67.4569 44.9352C66.7334 44.3413 66.2894 43.5165 66.125 42.4608ZM69.6273 34.7901C69.5944 34.8561 69.5615 34.9386 69.5287 35.0375C69.5287 35.1365 69.5615 35.2355 69.6273 35.3345C69.6602 35.3345 69.6931 35.351 69.726 35.384C69.7589 35.384 69.8082 35.3675 69.874 35.3345C70.4988 35.0375 71.1729 34.6416 71.8964 34.1468C72.6199 33.6519 73.3105 33.1075 73.9682 32.5137C74.6259 31.9198 75.2179 31.2929 75.744 30.6331C76.2702 29.9403 76.6319 29.2474 76.8293 28.5546C76.895 28.3896 76.9444 28.2412 76.9772 28.1092C77.0101 27.9772 76.9772 27.8453 76.8786 27.7133C76.8128 27.6473 76.7306 27.6143 76.6319 27.6143C76.5662 27.6143 76.4675 27.6473 76.336 27.7133C76.2373 27.7463 76.1551 27.7793 76.0893 27.8123C75.4316 28.0432 74.7739 28.4391 74.1162 29C73.4914 29.5279 72.883 30.1217 72.291 30.7816C71.732 31.4414 71.2223 32.1342 70.7619 32.8601C70.3015 33.5529 69.9233 34.1962 69.6273 34.7901Z" fill="#FF5D39"/>
<path d="M79.2541 46.6672C79.0896 45.8094 79.0567 44.9681 79.1554 44.1433C79.4842 41.7679 80.0104 39.5575 80.7339 37.5119C81.4903 35.4334 82.5755 33.4044 83.9896 31.4249C84.3513 30.93 84.7953 30.3692 85.3214 29.7423C85.8476 29.1155 86.4231 28.5381 87.0479 28.0102C87.6728 27.4494 88.314 26.9875 88.9717 26.6246C89.6623 26.2617 90.3365 26.0802 90.9942 26.0802C91.2902 26.0802 91.619 26.1462 91.9808 26.2782C92.3425 26.3771 92.6878 26.5256 93.0167 26.7235C93.3784 26.9215 93.6744 27.1689 93.9046 27.4659C94.1348 27.7298 94.2663 28.0267 94.2992 28.3567C94.365 28.7856 94.2499 29.1155 93.9539 29.3464C93.8223 29.4454 93.6908 29.4949 93.5593 29.4949C93.4606 29.4949 93.362 29.4784 93.2633 29.4454C93.1975 29.3794 93.1318 29.3134 93.066 29.2474C92.8358 29.0825 92.6549 28.9175 92.5234 28.7526C92.3918 28.5876 92.3918 28.3237 92.5234 27.9608C92.5891 27.7958 92.5727 27.6803 92.474 27.6143C92.3754 27.5484 92.2438 27.4989 92.0794 27.4659C91.6519 27.4659 91.2737 27.5319 90.9449 27.6638C90.6489 27.7958 90.32 27.9772 89.9583 28.2082C88.7086 29 87.5741 30.0063 86.5546 31.227C85.5352 32.4477 84.6473 33.7838 83.8909 35.2355C83.1674 36.6542 82.5591 38.1388 82.0658 39.6894C81.6054 41.2071 81.293 42.6752 81.1285 44.0939C81.0628 44.5887 81.0299 45.0671 81.0299 45.529C81.0628 45.9909 81.1285 46.4528 81.2272 46.9147C81.293 47.2446 81.3916 47.5745 81.5232 47.9044C81.6547 48.2344 81.9013 48.3993 82.2631 48.3993C82.9537 48.3993 83.8745 48.0529 85.0255 47.3601C86.1765 46.6672 87.3603 45.8754 88.5771 44.9846C89.8268 44.0609 90.9942 43.1371 92.0794 42.2133C93.1975 41.2565 94.0361 40.5307 94.5952 40.0358L98.8867 36.3242C99.1498 36.1263 99.4293 36.0273 99.7253 36.0273C99.9884 36.0273 100.219 36.0933 100.416 36.2253C100.646 36.3572 100.794 36.5387 100.86 36.7696C100.86 36.9346 100.843 37.0336 100.811 37.0666L100.367 37.5119C99.1169 38.5677 97.8673 39.6234 96.6176 40.6792C95.4009 41.7349 94.1676 42.7907 92.918 43.8464C92.3261 44.3413 91.6026 44.9187 90.7476 45.5785C89.9254 46.2053 89.0539 46.8157 88.1331 47.4096C87.2124 47.9704 86.2916 48.4488 85.3708 48.8447C84.4828 49.2736 83.6607 49.4881 82.9044 49.4881C82.0164 49.4881 81.2272 49.2406 80.5366 48.7457C79.846 48.2838 79.4185 47.591 79.2541 46.6672Z" fill="#FF5D39"/>
<path d="M111.174 29.0495C110.977 29.1485 110.697 29.4289 110.336 29.8908C109.974 30.3197 109.579 30.8476 109.152 31.4744C108.724 32.0683 108.28 32.7281 107.82 33.4539C107.359 34.1797 106.932 34.8726 106.537 35.5324C106.143 36.1593 105.781 36.7366 105.452 37.2645C105.156 37.7924 104.942 38.1718 104.811 38.4027C104.449 38.9636 104.104 39.5245 103.775 40.0853C103.479 40.6132 103.15 41.1576 102.788 41.7184C102.459 42.1803 102.098 42.6257 101.703 43.0546C101.308 43.4835 100.799 43.698 100.174 43.698C99.8121 43.698 99.4669 43.599 99.138 43.401C98.842 43.1701 98.6611 42.8731 98.5954 42.5102C98.5625 42.3453 98.5296 42.1803 98.4967 42.0154C98.4967 41.8504 98.5132 41.6854 98.5461 41.5205C98.8091 39.0461 99.2366 36.7201 99.8286 34.5427C100.453 32.3652 101.374 30.1877 102.591 28.0102C102.755 27.7133 102.986 27.5648 103.282 27.5648C103.446 27.5648 103.61 27.6143 103.775 27.7133C103.939 27.7793 104.087 27.8453 104.219 27.9113C104.515 28.0762 104.663 28.2082 104.663 28.3072C104.663 28.4061 104.548 28.6206 104.317 28.9505C103.791 29.7093 103.331 30.5836 102.936 31.5734C102.542 32.5301 102.196 33.5364 101.9 34.5922C101.604 35.6149 101.358 36.6542 101.16 37.7099C100.963 38.7327 100.799 39.6894 100.667 40.5802C100.601 40.7452 100.618 40.8276 100.716 40.8276C100.782 40.8606 100.815 40.8771 100.815 40.8771C100.881 40.8771 100.98 40.8111 101.111 40.6792C101.276 40.4152 101.44 40.1513 101.604 39.8874C101.802 39.5904 101.983 39.2935 102.147 38.9966C102.936 37.6769 103.726 36.3737 104.515 35.087C105.304 33.7673 106.143 32.4642 107.031 31.1775C107.622 30.2867 108.247 29.3959 108.905 28.5051C109.596 27.6143 110.319 26.7895 111.075 26.0307C111.437 25.6678 111.815 25.4863 112.21 25.4863C112.407 25.4863 112.621 25.5358 112.851 25.6348C113.41 25.8987 113.739 26.1627 113.838 26.4266C113.936 26.6906 113.92 27.0865 113.789 27.6143C113.624 28.3732 113.443 29.1485 113.246 29.9403C113.049 30.6991 112.851 31.4579 112.654 32.2167C112.391 33.1405 112.177 34.0643 112.013 34.9881C111.848 35.8788 111.7 36.7861 111.569 37.7099C111.536 37.7759 111.503 37.8749 111.47 38.0068C111.47 38.1058 111.519 38.1718 111.618 38.2048H111.717C111.848 38.2048 111.93 38.1553 111.963 38.0563C112.029 37.9573 112.095 37.8749 112.161 37.8089C113.476 35.8953 114.841 34.0478 116.255 32.2662C117.669 30.4516 119.264 28.7856 121.04 27.2679C121.336 26.971 121.681 26.8225 122.076 26.8225C122.372 26.8225 122.651 26.905 122.914 27.07C123.21 27.2679 123.457 27.4989 123.654 27.7628C123.851 27.9937 123.868 28.3237 123.703 28.7526C122.75 31.4249 121.878 34.0643 121.089 36.6707C120.333 39.277 119.807 42.0154 119.511 44.8857C119.445 45.4135 119.412 45.9414 119.412 46.4693C119.445 46.9642 119.511 47.459 119.609 47.9539C119.675 48.1189 119.79 48.2014 119.955 48.2014C120.119 48.2014 120.349 48.0694 120.645 47.8055C120.941 47.5745 121.254 47.2941 121.582 46.9642C121.944 46.6342 122.273 46.3208 122.569 46.0239C122.865 45.694 123.062 45.463 123.161 45.3311C123.819 44.5722 124.443 43.8134 125.035 43.0546C125.66 42.2628 126.301 41.4875 126.959 40.7287C127.518 40.1018 128.044 39.4915 128.538 38.8976C129.064 38.2708 129.606 37.6439 130.166 37.0171C130.626 36.5222 131.021 36.2747 131.349 36.2747C131.678 36.2747 132.007 36.4397 132.336 36.7696C132.533 36.9016 132.533 37.0995 132.336 37.3635C132.27 37.4625 132.188 37.5614 132.089 37.6604C131.991 37.7594 131.908 37.8584 131.843 37.9573C131.152 38.7162 130.494 39.475 129.87 40.2338C129.245 40.9926 128.62 41.7514 127.995 42.5102C127.337 43.335 126.68 44.1433 126.022 44.9352C125.364 45.694 124.69 46.4528 123.999 47.2116C123.506 47.7065 122.914 48.2344 122.224 48.7952C121.533 49.3561 120.81 49.6365 120.053 49.6365C119.56 49.6365 119.1 49.5046 118.672 49.2406C118.277 49.0097 117.998 48.6468 117.833 48.1519C117.669 47.624 117.57 47.0961 117.537 46.5683C117.505 46.0404 117.505 45.496 117.537 44.9352C117.702 43.0546 117.981 41.1906 118.376 39.343C118.804 37.4625 119.33 35.5819 119.955 33.7014C120.152 33.0745 120.366 32.4642 120.596 31.8703C120.826 31.2435 121.007 30.6166 121.138 29.9898C120.908 29.9898 120.514 30.2702 119.955 30.8311C119.428 31.3919 118.869 32.0353 118.277 32.7611C117.685 33.4539 117.126 34.1468 116.6 34.8396C116.107 35.5324 115.762 36.0108 115.564 36.2747C114.972 37.1325 114.38 37.9903 113.789 38.8481C113.197 39.7059 112.572 40.5472 111.914 41.372C111.651 41.6359 111.339 41.7679 110.977 41.7679C110.516 41.7679 110.138 41.6524 109.842 41.4215C109.546 41.1576 109.398 40.7782 109.398 40.2833C109.398 38.7327 109.546 37.182 109.842 35.6314C110.171 34.0808 110.533 32.5631 110.927 31.0785C111.191 30.2207 111.322 29.6598 111.322 29.3959C111.355 29.099 111.306 28.9835 111.174 29.0495ZM112.013 20.9829C112.868 20.818 113.69 20.6695 114.479 20.5375C115.301 20.3726 116.14 20.2241 116.995 20.0921C117.488 20.0262 117.981 19.9767 118.475 19.9437C118.968 19.8777 119.461 19.8447 119.955 19.8447C120.382 19.8447 120.793 19.8612 121.188 19.8942C121.582 19.9272 121.944 20.0262 122.273 20.1911C122.602 20.3231 122.881 20.5375 123.112 20.8345C123.342 21.0984 123.49 21.4943 123.556 22.0222C123.621 22.2861 123.654 22.5666 123.654 22.8635C123.687 23.1274 123.671 23.4079 123.605 23.7048C123.605 23.7708 123.539 23.8367 123.408 23.9027C123.276 23.9027 123.194 23.8862 123.161 23.8532C122.865 23.5893 122.717 23.2264 122.717 22.7645C122.717 22.4016 122.618 22.1542 122.421 22.0222C122.224 21.8902 121.977 21.8077 121.681 21.7747C121.484 21.7418 121.27 21.7253 121.04 21.7253C120.842 21.6923 120.645 21.6758 120.448 21.6758C120.185 21.6758 119.938 21.6923 119.708 21.7253C119.478 21.7253 119.231 21.7418 118.968 21.7747C118.047 21.9397 117.143 22.0882 116.255 22.2201C115.367 22.3521 114.463 22.5006 113.542 22.6655C112.785 22.7975 112.029 22.913 111.273 23.0119C110.516 23.1109 109.744 23.1934 108.954 23.2594C108.099 23.2594 107.31 23.0614 106.587 22.6655C105.863 22.2696 105.501 21.5438 105.501 20.4881C105.501 20.4221 105.518 20.3396 105.551 20.2406C105.584 20.1416 105.666 20.0757 105.797 20.0427C105.863 20.0097 105.929 20.0097 105.995 20.0427C106.06 20.0757 106.11 20.1086 106.143 20.1416C106.34 20.3396 106.488 20.5705 106.587 20.8345C106.652 21.0984 106.784 21.2634 106.981 21.3294C107.179 21.3953 107.409 21.4448 107.672 21.4778C108.428 21.4778 109.152 21.4283 109.842 21.3294C110.533 21.2304 111.256 21.1149 112.013 20.9829Z" fill="#FF5D39"/>
<path d="M142.773 45.628C142.575 46.5188 142.296 47.4096 141.934 48.3003C141.605 49.1911 141.194 50.0489 140.701 50.8737C140.208 51.6985 139.649 52.4738 139.024 53.1997C138.399 53.9255 137.708 54.5358 136.952 55.0307C136.459 55.3276 135.965 55.4761 135.472 55.4761C135.308 55.4761 135.094 55.4431 134.831 55.3771C133.779 55.0802 133.4 54.3709 133.696 53.2491C133.861 52.5893 134.206 51.847 134.732 51.0222C135.291 50.1974 135.9 49.3726 136.557 48.5478C137.248 47.756 137.939 46.9972 138.629 46.2713C139.32 45.5455 139.912 44.9681 140.405 44.5392C140.898 44.0444 141.194 43.467 141.293 42.8072C141.457 41.8504 141.49 40.9926 141.392 40.2338C141.359 40.1018 141.309 39.9369 141.244 39.7389C141.211 39.541 141.161 39.343 141.096 39.1451C141.03 38.9471 140.931 38.7821 140.8 38.6502C140.701 38.5182 140.569 38.4522 140.405 38.4522C140.306 38.4522 140.125 38.4852 139.862 38.5512C138.777 38.9471 137.774 39.6234 136.853 40.5802C135.965 41.537 135.16 42.6257 134.436 43.8464C133.746 45.0341 133.154 46.2713 132.66 47.558C132.167 48.8117 131.789 49.9499 131.526 50.9727C131.46 51.2696 131.394 51.5666 131.329 51.8635C131.263 52.1604 131.181 52.4408 131.082 52.7048C130.95 53.1997 130.589 53.4471 129.997 53.4471C129.273 53.4471 128.895 53.0017 128.862 52.1109C128.796 50.4283 128.813 48.7457 128.911 47.0631C129.01 45.3805 129.224 43.665 129.553 41.9164C130.046 39.1121 130.786 36.1758 131.773 33.1075C132.759 30.0063 133.894 26.938 135.176 23.9027C136.492 20.8345 137.922 17.9147 139.468 15.1433C141.013 12.339 142.625 9.83163 144.302 7.62116C144.729 7.0603 145.288 6.35097 145.979 5.49318C146.703 4.63538 147.475 3.79409 148.298 2.96928C149.153 2.14448 150.024 1.45165 150.912 0.890785C151.8 0.296928 152.622 0 153.378 0C154.299 0 155.072 0.478385 155.697 1.43516C156.157 2.095 156.338 2.9198 156.239 3.90956C156.141 4.80034 155.96 5.67463 155.697 6.53242C155.434 7.35722 155.088 8.19852 154.661 9.05631C153.97 10.442 153.23 11.8111 152.441 13.1638C151.685 14.4835 150.879 15.8032 150.024 17.1229C149.597 17.7497 148.988 18.6405 148.199 19.7952C147.41 20.917 146.505 22.1707 145.486 23.5563C144.466 24.909 143.381 26.3276 142.23 27.8123C141.112 29.2639 140.01 30.6331 138.925 31.9198C137.84 33.1735 136.82 34.2952 135.867 35.285C134.913 36.2418 134.107 36.9181 133.45 37.314C133.088 37.5449 132.808 37.8089 132.611 38.1058C132.414 38.4027 132.266 38.7327 132.167 39.0956C132.003 39.9864 131.838 40.8936 131.674 41.8174C131.509 42.7082 131.378 43.599 131.279 44.4898C131.213 44.6547 131.246 44.7702 131.378 44.8362C131.477 44.8692 131.592 44.7867 131.723 44.5887C132.118 43.8959 132.595 43.1371 133.154 42.3123C133.713 41.4875 134.338 40.7122 135.028 39.9863C135.719 39.2605 136.459 38.6502 137.248 38.1553C138.037 37.6604 138.859 37.413 139.714 37.413C140.569 37.413 141.342 37.6604 142.033 38.1553C142.723 38.6172 143.134 39.2275 143.266 39.9863C143.299 40.2503 143.315 40.4977 143.315 40.7287C143.348 40.9266 143.398 41.1411 143.463 41.372C143.463 41.537 143.546 41.6195 143.71 41.6195C143.743 41.6195 143.759 41.6195 143.759 41.6195C143.792 41.5865 143.842 41.57 143.907 41.57C144.105 41.438 144.302 41.306 144.499 41.1741C144.697 41.0421 144.877 40.9101 145.042 40.7782C146.094 40.0193 147.163 39.3265 148.248 38.6997C149.366 38.0398 150.501 37.4295 151.652 36.8686C151.718 36.8026 151.8 36.7696 151.898 36.7696C151.997 36.7366 152.096 36.6871 152.194 36.6212C152.556 36.4232 152.885 36.3242 153.181 36.3242C153.641 36.3242 154.085 36.5387 154.513 36.9676C154.644 37.1655 154.595 37.3305 154.365 37.4625C150.682 39.1451 147.262 41.2235 144.105 43.698C143.743 43.9619 143.447 44.2423 143.217 44.5392C142.986 44.8362 142.839 45.1991 142.773 45.628ZM154.168 1.53413C153.543 1.53413 152.836 1.79807 152.046 2.32594C151.257 2.85381 150.435 3.54665 149.58 4.40444C148.758 5.22924 147.936 6.16951 147.114 7.22526C146.292 8.24801 145.519 9.27076 144.795 10.2935C144.072 11.3163 143.43 12.2895 142.871 13.2133C142.312 14.1041 141.885 14.8134 141.589 15.3413C140.043 18.0466 138.678 20.785 137.495 23.5563C136.311 26.3276 135.242 29.165 134.288 32.0683C134.157 32.4642 134.009 32.8766 133.844 33.3055C133.713 33.7014 133.614 34.1797 133.548 34.7406C133.91 34.5097 134.206 34.2787 134.436 34.0478C134.666 33.8168 134.88 33.5859 135.078 33.3549C136.031 32.2992 137.166 30.963 138.481 29.3464C139.829 27.7298 141.227 25.9647 142.674 24.0512C144.121 22.1377 145.568 20.1581 147.015 18.1126C148.462 16.0341 149.761 14.0216 150.912 12.0751C152.063 10.1286 152.984 8.2975 153.674 6.58191C154.398 4.86633 154.76 3.43117 154.76 2.27645C154.76 1.78157 154.562 1.53413 154.168 1.53413ZM139.566 48.2014C139.402 48.2014 139.122 48.4323 138.728 48.8942C138.333 49.3561 137.922 49.884 137.495 50.4778C137.067 51.0717 136.689 51.6655 136.36 52.2594C136.031 52.8532 135.834 53.2656 135.768 53.4966C135.768 53.5626 135.785 53.5956 135.817 53.5956C135.949 53.6615 136.031 53.678 136.064 53.6451C136.82 53.1172 137.511 52.3419 138.136 51.3191C138.794 50.2964 139.287 49.3726 139.616 48.5478C139.682 48.3498 139.665 48.2344 139.566 48.2014Z" fill="#FF5D39"/>
<path d="M152.257 42.4608C152.06 41.0751 152.142 39.5245 152.504 37.8089C152.668 37.6109 152.717 37.3965 152.652 37.1655C152.619 36.9016 152.668 36.6377 152.799 36.3737C153.293 35.417 153.786 34.4602 154.279 33.5034C154.773 32.5466 155.348 31.6229 156.006 30.7321C156.368 30.2702 156.779 29.7918 157.239 29.2969C157.732 28.7691 158.242 28.2742 158.768 27.8123C159.327 27.3504 159.903 26.971 160.495 26.6741C161.12 26.3771 161.728 26.2287 162.32 26.2287C162.78 26.2287 163.175 26.3276 163.504 26.5256C163.865 26.7236 164.161 26.9875 164.392 27.3174C164.622 27.6143 164.753 27.9772 164.786 28.4061C164.852 28.835 164.786 29.2804 164.589 29.7423C164.227 30.6331 163.701 31.4744 163.01 32.2662C162.353 33.058 161.596 33.7838 160.741 34.4437C159.919 35.0705 159.048 35.6314 158.127 36.1263C157.206 36.6212 156.318 37.0006 155.463 37.2645C155.101 37.3635 154.838 37.5119 154.674 37.7099C154.51 37.9079 154.394 38.1718 154.329 38.5017C153.967 40.0523 153.885 41.5205 154.082 42.9061C154.214 44.0609 154.641 44.6382 155.365 44.6382C155.924 44.6382 156.548 44.4733 157.239 44.1433C157.93 43.8134 158.604 43.4175 159.262 42.9556C159.952 42.4608 160.593 41.9494 161.185 41.4215C161.777 40.8936 162.271 40.4482 162.665 40.0853C163.257 39.5245 163.833 38.9636 164.392 38.4027C164.984 37.8089 165.576 37.2315 166.167 36.6707C166.661 36.2088 167.072 35.9778 167.401 35.9778C167.565 35.9778 167.713 36.0108 167.845 36.0768C167.976 36.1428 168.141 36.2418 168.338 36.3737C168.634 36.6047 168.634 36.8686 168.338 37.1655C166.825 38.6832 165.28 40.1843 163.701 41.6689C163.208 42.0978 162.665 42.5597 162.073 43.0546C161.514 43.5495 160.906 43.9949 160.248 44.3908C159.59 44.7867 158.916 45.1166 158.226 45.3805C157.568 45.6445 156.894 45.7765 156.203 45.7765C155.184 45.7765 154.312 45.496 153.589 44.9352C152.865 44.3413 152.421 43.5165 152.257 42.4608ZM155.759 34.7901C155.726 34.8561 155.693 34.9386 155.661 35.0375C155.661 35.1365 155.693 35.2355 155.759 35.3345C155.792 35.3345 155.825 35.351 155.858 35.384C155.891 35.384 155.94 35.3675 156.006 35.3345C156.631 35.0375 157.305 34.6416 158.028 34.1468C158.752 33.6519 159.442 33.1075 160.1 32.5137C160.758 31.9198 161.35 31.2929 161.876 30.6331C162.402 29.9403 162.764 29.2474 162.961 28.5546C163.027 28.3896 163.076 28.2412 163.109 28.1092C163.142 27.9772 163.109 27.8453 163.01 27.7133C162.945 27.6473 162.862 27.6143 162.764 27.6143C162.698 27.6143 162.599 27.6473 162.468 27.7133C162.369 27.7463 162.287 27.7793 162.221 27.8123C161.564 28.0432 160.906 28.4391 160.248 29C159.623 29.5279 159.015 30.1217 158.423 30.7816C157.864 31.4414 157.354 32.1342 156.894 32.8601C156.433 33.5529 156.055 34.1962 155.759 34.7901Z" fill="#FF5D39"/>
<path d="M166.077 47.1126C165.616 47.0796 165.402 46.7992 165.435 46.2713C165.435 46.1064 165.452 45.9249 165.485 45.727C165.517 45.529 165.55 45.3311 165.583 45.1331C166.044 42.2958 166.471 39.475 166.866 36.6707C167.293 33.8663 167.737 31.0455 168.198 28.2082C168.263 27.9772 168.296 27.7628 168.296 27.5648C168.329 27.3339 168.379 27.1195 168.444 26.9215C168.543 26.4266 168.757 26.1792 169.086 26.1792C169.25 26.1792 169.414 26.2287 169.579 26.3276C169.776 26.3936 169.957 26.4761 170.121 26.5751C170.352 26.6741 170.434 26.8555 170.368 27.1195C170.368 27.2844 170.335 27.5319 170.269 27.8618C169.941 30.0393 169.628 32.2167 169.332 34.3942C169.069 36.5387 168.724 38.6997 168.296 40.8771C168.296 40.9431 168.28 41.0091 168.247 41.0751C168.247 41.1411 168.247 41.2071 168.247 41.273C168.247 41.372 168.28 41.4545 168.346 41.5205C168.379 41.5205 168.395 41.537 168.395 41.57C168.395 41.57 168.411 41.57 168.444 41.57C168.51 41.57 168.609 41.504 168.74 41.372C168.806 41.306 168.855 41.2565 168.888 41.2235C168.921 41.1576 168.97 41.0916 169.036 41.0256C171.009 38.6502 172.95 36.2583 174.857 33.8498C176.764 31.4414 178.622 28.967 180.431 26.4266C180.53 26.2617 180.628 26.0967 180.727 25.9317C180.859 25.7338 180.99 25.5523 181.122 25.3874C181.319 25.1894 181.5 25.0904 181.664 25.0904C181.73 25.0904 181.779 25.1069 181.812 25.1399C181.845 25.1399 181.878 25.1399 181.911 25.1399C182.075 25.2059 182.207 25.2884 182.306 25.3874C182.437 25.4863 182.569 25.5688 182.7 25.6348C182.996 25.8328 183.062 26.1297 182.897 26.5256C182.141 28.7031 181.467 30.897 180.875 33.1075C180.316 35.285 179.856 37.5119 179.494 39.7884C179.329 40.8771 179.214 41.9659 179.149 43.0546C179.083 44.1104 179.099 45.1661 179.198 46.2218C179.231 46.4198 179.247 46.6177 179.247 46.8157C179.28 47.0137 179.329 47.2116 179.395 47.4096C179.461 47.6075 179.576 47.7065 179.74 47.7065C179.905 47.7065 180.168 47.5415 180.53 47.2116C180.924 46.8817 181.352 46.4693 181.812 45.9744C182.306 45.4465 182.815 44.8857 183.341 44.2918C183.868 43.665 184.361 43.0711 184.821 42.5102C185.282 41.9494 185.693 41.438 186.055 40.9761C186.416 40.5142 186.663 40.2008 186.794 40.0358C187.255 39.475 187.699 38.9306 188.126 38.4027C188.554 37.8419 188.998 37.281 189.458 36.7201C189.787 36.2912 190.099 36.0768 190.395 36.0768C190.593 36.0768 190.839 36.1428 191.135 36.2747C191.431 36.4067 191.612 36.5717 191.678 36.7696C191.645 36.8356 191.629 36.8851 191.629 36.9181C191.629 36.9511 191.612 37.0006 191.579 37.0666C190.297 38.6502 189.014 40.2503 187.732 41.8669C186.482 43.4505 185.134 44.9846 183.687 46.4693C183.358 46.7992 183.029 47.1291 182.7 47.459C182.404 47.756 182.075 48.0364 181.714 48.3003C181.089 48.7952 180.431 49.0427 179.74 49.0427C179.181 49.0427 178.721 48.9272 178.359 48.6962C178.03 48.4983 177.767 48.2344 177.57 47.9044C177.406 47.5745 177.29 47.1951 177.225 46.7662C177.159 46.3373 177.11 45.9084 177.077 45.4795C177.011 44.2258 177.027 42.9886 177.126 41.7679C177.258 40.5142 177.455 39.2605 177.718 38.0068C177.882 37.182 178.047 36.3737 178.211 35.5819C178.376 34.7571 178.589 33.9323 178.853 33.1075C178.918 32.9425 178.951 32.7776 178.951 32.6126C178.984 32.4477 179.017 32.2827 179.05 32.1177C179.017 32.0848 178.968 32.0683 178.902 32.0683C178.77 32.0683 178.606 32.2002 178.409 32.4642C177.29 33.8498 176.172 35.2025 175.054 36.5222C173.969 37.8419 172.884 39.1945 171.799 40.5802C171.042 41.504 170.319 42.4278 169.628 43.3515C168.97 44.2423 168.379 45.1991 167.852 46.2218C167.458 46.8487 166.981 47.1621 166.422 47.1621C166.257 47.1621 166.142 47.1456 166.077 47.1126Z" fill="#FF5D39"/>
<path d="M189.151 47.1126C188.691 47.0796 188.477 46.7992 188.51 46.2713C188.51 46.1064 188.526 45.9249 188.559 45.727C188.592 45.529 188.625 45.3311 188.658 45.1331C189.118 42.2958 189.546 39.475 189.94 36.6707C190.368 33.8663 190.812 31.0455 191.272 28.2082C191.338 27.9772 191.371 27.7628 191.371 27.5648C191.404 27.3339 191.453 27.1195 191.519 26.9215C191.617 26.4266 191.831 26.1792 192.16 26.1792C192.324 26.1792 192.489 26.2287 192.653 26.3276C192.851 26.3936 193.032 26.4761 193.196 26.5751C193.426 26.6741 193.508 26.8555 193.443 27.1195C193.443 27.2844 193.41 27.5319 193.344 27.8618C193.015 30.0393 192.703 32.2167 192.407 34.3942C192.144 36.5387 191.798 38.6997 191.371 40.8771C191.371 40.9431 191.354 41.0091 191.321 41.0751C191.321 41.1411 191.321 41.2071 191.321 41.273C191.321 41.372 191.354 41.4545 191.42 41.5205C191.453 41.5205 191.469 41.537 191.469 41.57C191.469 41.57 191.486 41.57 191.519 41.57C191.585 41.57 191.683 41.504 191.815 41.372C191.881 41.306 191.93 41.2565 191.963 41.2235C191.996 41.1576 192.045 41.0916 192.111 41.0256C194.084 38.6502 196.024 36.2583 197.931 33.8498C199.839 31.4414 201.697 28.967 203.506 26.4266C203.604 26.2617 203.703 26.0967 203.802 25.9317C203.933 25.7338 204.065 25.5523 204.196 25.3874C204.393 25.1894 204.574 25.0904 204.739 25.0904C204.805 25.0904 204.854 25.1069 204.887 25.1399C204.92 25.1399 204.953 25.1399 204.985 25.1399C205.15 25.2059 205.281 25.2884 205.38 25.3874C205.512 25.4863 205.643 25.5688 205.775 25.6348C206.071 25.8328 206.136 26.1297 205.972 26.5256C205.216 28.7031 204.541 30.897 203.95 33.1075C203.39 35.285 202.93 37.5119 202.568 39.7884C202.404 40.8771 202.289 41.9659 202.223 43.0546C202.157 44.1104 202.174 45.1661 202.272 46.2218C202.305 46.4198 202.322 46.6177 202.322 46.8157C202.355 47.0137 202.404 47.2116 202.47 47.4096C202.535 47.6075 202.651 47.7065 202.815 47.7065C202.979 47.7065 203.242 47.5415 203.604 47.2116C203.999 46.8817 204.426 46.4693 204.887 45.9744C205.38 45.4465 205.89 44.8857 206.416 44.2918C206.942 43.665 207.435 43.0711 207.896 42.5102C208.356 41.9494 208.767 41.438 209.129 40.9761C209.491 40.5142 209.737 40.2008 209.869 40.0358C210.329 39.475 210.773 38.9306 211.201 38.4027C211.628 37.8419 212.072 37.281 212.533 36.7201C212.861 36.2912 213.174 36.0768 213.47 36.0768C213.667 36.0768 213.914 36.1428 214.21 36.2747C214.506 36.4067 214.687 36.5717 214.752 36.7696C214.72 36.8356 214.703 36.8851 214.703 36.9181C214.703 36.9511 214.687 37.0006 214.654 37.0666C213.371 38.6502 212.089 40.2503 210.806 41.8669C209.556 43.4505 208.208 44.9846 206.761 46.4693C206.432 46.7992 206.104 47.1291 205.775 47.459C205.479 47.756 205.15 48.0364 204.788 48.3003C204.163 48.7952 203.506 49.0427 202.815 49.0427C202.256 49.0427 201.796 48.9272 201.434 48.6962C201.105 48.4983 200.842 48.2344 200.645 47.9044C200.48 47.5745 200.365 47.1951 200.299 46.7662C200.233 46.3373 200.184 45.9084 200.151 45.4795C200.085 44.2258 200.102 42.9886 200.201 41.7679C200.332 40.5142 200.529 39.2605 200.792 38.0068C200.957 37.182 201.121 36.3737 201.286 35.5819C201.45 34.7571 201.664 33.9323 201.927 33.1075C201.993 32.9425 202.026 32.7776 202.026 32.6126C202.059 32.4477 202.091 32.2827 202.124 32.1177C202.091 32.0848 202.042 32.0683 201.976 32.0683C201.845 32.0683 201.68 32.2002 201.483 32.4642C200.365 33.8498 199.247 35.2025 198.129 36.5222C197.044 37.8419 195.958 39.1945 194.873 40.5802C194.117 41.504 193.393 42.4278 192.703 43.3515C192.045 44.2423 191.453 45.1991 190.927 46.2218C190.532 46.8487 190.055 47.1621 189.496 47.1621C189.332 47.1621 189.217 47.1456 189.151 47.1126Z" fill="#FF5D39"/>
<path d="M212.571 37.0666C212.209 36.5387 211.995 35.9283 211.93 35.2355C211.864 34.5427 211.897 33.8333 212.028 33.1075C212.16 32.3487 212.373 31.6229 212.669 30.93C212.998 30.2042 213.393 29.5609 213.853 29C214.675 28.0102 215.613 27.2514 216.665 26.7235C217.717 26.1627 218.868 25.8823 220.118 25.8823C221.17 25.8823 222.14 26.0802 223.028 26.4761C223.916 26.872 224.673 27.4164 225.297 28.1092C225.922 28.7691 226.383 29.5609 226.679 30.4846C227.008 31.3754 227.123 32.3487 227.024 33.4044C226.925 34.3282 226.744 35.2355 226.481 36.1263C226.251 36.9841 225.955 37.8419 225.593 38.6997C225.429 39.0296 225.478 39.1945 225.741 39.1945C226.005 39.1945 226.383 39.0791 226.876 38.8481C227.369 38.6172 227.879 38.3532 228.405 38.0563C228.964 37.7264 229.474 37.413 229.934 37.116C230.428 36.7861 230.789 36.5387 231.02 36.3737C231.283 36.2088 231.48 36.0768 231.612 35.9778C231.776 35.8788 231.94 35.8294 232.105 35.8294C232.368 35.8294 232.697 35.9613 233.091 36.2253C233.519 36.4892 233.486 36.7861 232.993 37.116C231.776 37.9738 230.51 38.7491 229.194 39.442C227.879 40.1018 226.481 40.6132 225.002 40.9761C224.673 41.0091 224.393 41.2071 224.163 41.57C223.768 42.2298 223.308 42.9226 222.782 43.6485C222.288 44.3413 221.729 44.9846 221.105 45.5785C220.48 46.1724 219.806 46.6672 219.082 47.0631C218.359 47.4261 217.586 47.6075 216.764 47.6075C215.613 47.6075 214.61 47.1786 213.755 46.3208C213.097 45.661 212.637 44.9022 212.373 44.0444C212.143 43.1866 212.061 42.2628 212.127 41.273C212.193 40.3493 212.357 39.475 212.62 38.6502C212.719 38.3532 212.768 38.0893 212.768 37.8584C212.801 37.5944 212.735 37.3305 212.571 37.0666ZM214.347 32.0683C213.919 33.058 213.722 34.0643 213.755 35.087C213.755 35.153 213.755 35.219 213.755 35.285C213.788 35.318 213.82 35.318 213.853 35.285C213.985 35.285 214.116 35.252 214.248 35.186C214.347 35.087 214.462 34.9056 214.593 34.6416C214.692 34.4767 214.84 34.2787 215.037 34.0478C215.235 33.7838 215.448 33.5364 215.678 33.3055C215.909 33.0415 216.139 32.8271 216.369 32.6621C216.632 32.4642 216.862 32.3652 217.06 32.3652C217.356 32.3652 217.717 32.5466 218.145 32.9096C218.375 33.1405 218.375 33.3385 218.145 33.5034C217.915 33.6354 217.734 33.7838 217.602 33.9488C217.536 34.0808 217.454 34.1962 217.356 34.2952C217.257 34.3612 217.175 34.4437 217.109 34.5427C216.681 35.0375 216.303 35.5489 215.974 36.0768C215.678 36.6047 215.399 37.149 215.136 37.7099C214.971 38.0728 215.021 38.3697 215.284 38.6007C215.909 39.1945 216.681 39.6399 217.602 39.9369C218.523 40.2008 219.411 40.3328 220.266 40.3328C220.957 40.3328 221.614 40.2668 222.239 40.1348C222.535 40.0688 222.831 39.7719 223.127 39.244C223.456 38.6832 223.735 38.0728 223.966 37.413C224.229 36.7201 224.442 36.0438 224.607 35.384C224.804 34.7241 224.919 34.2622 224.952 33.9983C225.117 33.1075 225.166 32.2497 225.1 31.4249C225.067 30.6001 224.854 29.8083 224.459 29.0495C223.735 27.6968 222.667 27.0205 221.253 27.0205C219.641 27.0205 218.244 27.5154 217.06 28.5051C215.876 29.4619 214.971 30.6496 214.347 32.0683ZM214.396 39.8874C213.968 41.438 214.018 42.9721 214.544 44.4898C214.61 44.6547 214.708 44.8692 214.84 45.1331C214.971 45.3641 215.119 45.595 215.284 45.8259C215.448 46.0569 215.629 46.2548 215.826 46.4198C216.057 46.5848 216.27 46.6672 216.468 46.6672C216.928 46.6672 217.421 46.4858 217.948 46.1229C218.507 45.727 219.033 45.2651 219.526 44.7372C220.052 44.1763 220.513 43.6155 220.907 43.0546C221.302 42.4608 221.581 41.9659 221.746 41.57C221.647 41.537 221.549 41.5205 221.45 41.5205C221.384 41.4875 221.302 41.471 221.203 41.471C218.901 41.372 216.895 40.7947 215.185 39.7389C215.152 39.7059 215.07 39.6564 214.939 39.5904C214.61 39.5904 214.429 39.6894 214.396 39.8874Z" fill="#FF5D39"/>
<path d="M241.872 40.7287C241.741 39.5739 241.741 38.3862 241.872 37.1655C241.905 36.9346 241.971 36.5222 242.07 35.9283C242.168 35.3345 242.283 34.6581 242.415 33.8993C242.579 33.1405 242.76 32.3487 242.957 31.5239C243.155 30.6991 243.352 29.9403 243.549 29.2474C243.78 28.5546 243.993 27.9772 244.191 27.5154C244.421 27.0205 244.651 26.7565 244.881 26.7235C245.079 26.7235 245.342 26.773 245.67 26.872C246.032 26.938 246.23 27.103 246.262 27.3669C246.295 27.4989 246.279 27.6803 246.213 27.9113C245.753 29.066 245.375 30.2372 245.079 31.4249C244.815 32.6126 244.552 33.8003 244.289 34.9881C244.125 35.8458 243.993 36.7036 243.895 37.5614C243.829 38.4192 243.829 39.277 243.895 40.1348C243.895 40.2008 243.895 40.3328 243.895 40.5307C243.928 40.6957 243.96 40.8771 243.993 41.0751C244.026 41.273 244.059 41.4545 244.092 41.6195C244.158 41.7514 244.24 41.8174 244.339 41.8174C244.404 41.8174 244.503 41.7679 244.635 41.6689C244.766 41.537 244.898 41.405 245.029 41.273C245.194 41.1411 245.342 41.0091 245.473 40.8771C245.605 40.7122 245.687 40.6132 245.72 40.5802C246.476 39.7224 247.2 38.8316 247.89 37.9079C248.581 36.9841 249.271 36.0603 249.962 35.1365C250.686 34.1798 251.409 33.256 252.132 32.3652C252.889 31.4744 253.695 30.6001 254.55 29.7423C254.714 29.5774 254.895 29.4124 255.092 29.2474C255.29 29.0495 255.487 28.868 255.684 28.7031C255.947 28.4721 256.243 28.3567 256.572 28.3567C256.802 28.3567 256.967 28.3732 257.065 28.4061C257.624 28.6041 257.97 28.8185 258.101 29.0495C258.233 29.2804 258.216 29.6928 258.052 30.2867C257.789 31.2765 257.526 32.2662 257.263 33.256C257.032 34.2457 256.786 35.2355 256.523 36.2253C256.128 37.8089 255.849 39.376 255.684 40.9266C255.52 42.4443 255.487 43.9784 255.585 45.529C255.585 45.628 255.602 45.7929 255.635 46.0239C255.668 46.2548 255.701 46.5023 255.733 46.7662C255.799 46.9972 255.881 47.2116 255.98 47.4096C256.079 47.6075 256.194 47.7065 256.325 47.7065C256.391 47.7065 256.49 47.657 256.621 47.558C256.753 47.4261 256.884 47.2776 257.016 47.1126C257.18 46.9477 257.328 46.7992 257.46 46.6672C257.624 46.5023 257.723 46.3868 257.756 46.3208C258.315 45.628 258.841 44.9352 259.334 44.2423C259.861 43.5165 260.403 42.7907 260.962 42.0648C261.488 41.339 261.998 40.6297 262.491 39.9369C262.985 39.211 263.494 38.4852 264.021 37.7594C264.185 37.5284 264.333 37.314 264.465 37.116C264.629 36.9181 264.793 36.7036 264.958 36.4727C265.155 36.1758 265.418 36.0273 265.747 36.0273C265.912 36.0273 266.076 36.0603 266.24 36.1263C266.438 36.1923 266.619 36.2582 266.783 36.3242C267.112 36.4892 267.145 36.7201 266.882 37.0171C266.454 37.6109 266.027 38.2048 265.599 38.7986C265.172 39.3925 264.744 39.9864 264.317 40.5802C263.363 41.8999 262.442 43.1536 261.554 44.3413C260.666 45.496 259.68 46.6672 258.595 47.8549C258.233 48.2179 257.822 48.4983 257.361 48.6962C256.901 48.8942 256.424 48.9932 255.931 48.9932C255.438 48.9932 255.01 48.8612 254.648 48.5973C254.286 48.3333 254.023 47.9539 253.859 47.459C253.662 46.8322 253.53 46.2053 253.464 45.5785C253.431 44.9187 253.415 44.2588 253.415 43.599C253.415 42.0154 253.563 40.3823 253.859 38.6997C254.188 37.0171 254.582 35.4334 255.043 33.9488C255.142 33.6189 255.207 33.3055 255.24 33.0085C255.306 32.6786 255.372 32.3652 255.437 32.0683C255.47 31.9363 255.421 31.8703 255.29 31.8703C255.158 31.9033 255.026 31.9858 254.895 32.1177C254.763 32.2497 254.665 32.3652 254.599 32.4642C254.139 33.025 253.662 33.6024 253.168 34.1962C252.675 34.7901 252.198 35.384 251.738 35.9778C251.113 36.7696 250.488 37.5614 249.863 38.3532C249.271 39.1121 248.663 39.8709 248.038 40.6297C247.808 40.9266 247.545 41.24 247.249 41.57C246.953 41.8669 246.641 42.1473 246.312 42.4113C245.983 42.6752 245.638 42.8896 245.276 43.0546C244.914 43.2196 244.536 43.302 244.141 43.302C243.286 43.302 242.711 43.0711 242.415 42.6092C242.152 42.1143 241.971 41.4875 241.872 40.7287Z" fill="#FF5D39"/>
<path d="M271.703 49.9334C271.407 49.0757 271.275 48.1849 271.308 47.2611C271.308 46.3373 271.44 45.397 271.703 44.4403C271.933 43.5495 272.311 42.4772 272.837 41.2235C273.331 39.9699 273.955 38.7821 274.712 37.6604C275.468 36.5387 276.323 35.5819 277.277 34.7901C278.263 33.9983 279.299 33.6024 280.385 33.6024C281.075 33.6024 281.684 33.7509 282.21 34.0478C282.243 34.0478 282.259 34.0643 282.259 34.0973C282.292 34.0973 282.341 34.0973 282.407 34.0973C282.571 34.0973 282.687 33.9818 282.752 33.7509L282.9 33.157C283.163 31.5734 283.328 30.0063 283.394 28.4556C283.492 26.872 283.492 25.2884 283.394 23.7048C283.295 22.1212 283.13 20.554 282.9 19.0034C282.703 17.4198 282.423 15.8692 282.062 14.3515C281.996 14.0876 281.93 13.8402 281.864 13.6092C281.832 13.3783 281.815 13.1308 281.815 12.8669C281.815 12.2071 282.177 11.7782 282.9 11.5802C283.065 11.5142 283.213 11.4812 283.344 11.4812C283.476 11.4812 283.607 11.4812 283.739 11.4812C284.101 11.4812 284.446 11.4977 284.775 11.5307C285.104 11.5307 285.432 11.5472 285.761 11.5802C286.452 11.6792 287.126 11.7287 287.784 11.7287C289.362 11.7287 290.908 11.5307 292.421 11.1348C293.933 10.7389 295.446 10.1615 296.959 9.40273C297.353 9.20478 297.814 8.95734 298.34 8.66041C298.899 8.36348 299.442 8.05006 299.968 7.72014C300.527 7.35723 301.037 6.99431 301.497 6.6314C301.957 6.2355 302.286 5.85609 302.484 5.49318C302.845 5.49318 303.141 5.64164 303.372 5.93857C303.7 6.2355 303.848 6.49943 303.815 6.73038C303.783 6.96132 303.569 7.25825 303.174 7.62116C303.108 7.68715 303.026 7.75313 302.928 7.81911C302.862 7.8851 302.796 7.95108 302.73 8.01707C300.724 9.50171 298.57 10.7059 296.268 11.6297C293.966 12.5535 291.549 13.0154 289.017 13.0154C288.458 13.0154 287.915 12.9989 287.389 12.9659C286.896 12.9329 286.37 12.8834 285.811 12.8174C285.646 12.7844 285.482 12.7679 285.317 12.7679C285.186 12.7679 285.038 12.7679 284.873 12.7679C284.183 12.7679 283.772 12.9329 283.64 13.2628C283.542 13.5927 283.624 14.1866 283.887 15.0444C284.643 18.0796 285.104 21.2964 285.268 24.6945C285.531 29.4454 285.021 34.1797 283.739 38.8976C283.476 39.8874 283.065 41.1246 282.506 42.6092C281.979 44.0939 281.322 45.529 280.533 46.9147C279.743 48.2673 278.839 49.4386 277.819 50.4283C276.8 51.4181 275.698 51.913 274.514 51.913C273.857 51.913 273.281 51.748 272.788 51.4181C272.295 51.0882 271.933 50.5933 271.703 49.9334ZM273.331 47.657C273.298 48.4818 273.429 49.3066 273.725 50.1314C273.923 50.6263 274.136 50.8737 274.366 50.8737C274.597 50.8737 274.876 50.7253 275.205 50.4283C276.159 49.7355 276.997 48.8282 277.721 47.7065C278.477 46.6177 279.135 45.463 279.694 44.2423C280.286 42.9886 280.779 41.7184 281.174 40.4317C281.568 39.1121 281.914 37.9078 282.21 36.8191C282.275 36.5552 282.325 36.3407 282.358 36.1758C282.391 35.9778 282.407 35.7964 282.407 35.6314C282.473 35.4664 282.456 35.3345 282.358 35.2355C282.292 35.1035 282.095 35.0046 281.766 34.9386C281.437 34.8396 281.141 34.7901 280.878 34.7901C280.648 34.7901 280.5 34.8066 280.434 34.8396C279.382 35.3015 278.428 36.0438 277.573 37.0666C276.718 38.0563 275.978 39.1615 275.353 40.3823C274.761 41.603 274.284 42.8567 273.923 44.1433C273.561 45.43 273.363 46.6012 273.331 47.657Z" fill="#FF5D39"/>
<path d="M288.857 45.6775C288.857 44.5228 288.956 43.2855 289.153 41.9659C289.35 40.6462 289.63 39.3265 289.992 38.0068C290.353 36.6542 290.781 35.351 291.274 34.0973C291.767 32.8436 292.326 31.7383 292.951 30.7816C293.116 30.5176 293.329 30.3857 293.593 30.3857C293.757 30.3857 293.921 30.4352 294.086 30.5341C294.283 30.6331 294.448 30.7156 294.579 30.7816C294.875 30.9465 294.924 31.227 294.727 31.6229C294.398 32.1177 294.102 32.6291 293.839 33.157C293.609 33.6519 293.379 34.1797 293.149 34.7406C292.392 36.7201 291.817 38.7162 291.422 40.7287C291.027 42.7082 290.863 44.6877 290.929 46.6672C290.929 46.7992 290.945 47.0301 290.978 47.3601C291.011 47.657 291.06 47.9704 291.126 48.3003C291.225 48.6303 291.323 48.9272 291.422 49.1911C291.554 49.4551 291.702 49.587 291.866 49.587C291.932 49.587 292.063 49.554 292.261 49.4881C292.721 49.2241 293.149 48.8282 293.543 48.3003C293.971 47.7725 294.332 47.2116 294.628 46.6177C294.924 46.0239 295.138 45.43 295.27 44.8362C295.434 44.2093 295.467 43.665 295.368 43.2031C295.204 42.5102 294.793 42.0154 294.135 41.7184C293.872 41.5865 293.609 41.471 293.346 41.372C293.083 41.273 292.853 41.1081 292.655 40.8771C292.359 40.6132 292.359 40.3163 292.655 39.9863C292.951 39.6564 293.247 39.376 293.543 39.1451C293.872 38.8811 294.217 38.6172 294.579 38.3532C296.815 36.7696 299.052 35.252 301.288 33.8003C303.557 32.3157 305.859 30.8476 308.194 29.3959C308.654 29.165 309.032 29.0495 309.328 29.0495C309.92 29.0495 310.348 29.3134 310.611 29.8413C310.71 30.0393 310.726 30.2702 310.66 30.5341C309.674 32.8106 308.868 35.1695 308.243 37.6109C307.651 40.0193 307.174 42.4608 306.813 44.9352C306.681 45.7929 306.582 46.6507 306.517 47.5085C306.451 48.3663 306.434 49.2241 306.467 50.0819C306.467 50.3129 306.467 50.5273 306.467 50.7253C306.5 50.9562 306.582 51.1871 306.714 51.4181C307.109 51.1542 307.421 50.8572 307.651 50.5273C307.881 50.2304 308.128 49.9334 308.391 49.6365C309.312 48.4158 310.183 47.1786 311.005 45.9249C311.828 44.6382 312.633 43.368 313.423 42.1143C313.982 41.2565 314.524 40.4152 315.05 39.5904C315.609 38.7327 316.168 37.8749 316.728 37.0171C316.826 36.8521 316.925 36.7036 317.024 36.5717C317.122 36.4397 317.237 36.2912 317.369 36.1263C317.5 35.9283 317.681 35.8294 317.911 35.8294C318.142 35.8294 318.388 35.8953 318.651 36.0273C319.013 36.1923 319.194 36.3572 319.194 36.5222C319.227 36.6871 319.112 36.9676 318.849 37.3635C317.994 38.6832 317.139 40.0028 316.284 41.3225C315.429 42.6422 314.574 43.9784 313.719 45.3311C313.39 45.8259 312.995 46.4033 312.535 47.0631C312.107 47.723 311.647 48.3993 311.153 49.0922C310.66 49.785 310.15 50.4283 309.624 51.0222C309.131 51.649 308.654 52.1604 308.194 52.5563C307.635 52.9852 307.043 53.1997 306.418 53.1997C305.99 53.1997 305.612 53.0842 305.283 52.8532C304.955 52.6223 304.741 52.2759 304.642 51.814C304.511 51.3521 304.428 50.8737 304.395 50.3788C304.395 49.917 304.395 49.4551 304.395 48.9932C304.428 47.7395 304.543 46.4033 304.741 44.9846C304.938 43.533 305.185 42.0813 305.481 40.6297C305.81 39.1451 306.171 37.7099 306.566 36.3242C306.961 34.9386 307.372 33.6849 307.799 32.5631C307.865 32.4642 307.898 32.2827 307.898 32.0188C307.865 31.9528 307.848 31.9198 307.848 31.9198C307.75 31.8868 307.421 32.0353 306.862 32.3652C306.303 32.6621 305.629 33.058 304.839 33.5529C304.05 34.0478 303.212 34.5921 302.324 35.186C301.436 35.7799 300.581 36.3572 299.759 36.9181C298.969 37.446 298.262 37.9243 297.637 38.3532C297.013 38.7821 296.602 39.0626 296.404 39.1945C296.141 39.3595 295.895 39.541 295.664 39.7389C295.467 39.9039 295.253 40.0688 295.023 40.2338C294.76 40.4647 294.628 40.6297 294.628 40.7287C294.628 40.8276 294.744 40.9431 294.974 41.0751C295.171 41.2071 295.368 41.3225 295.566 41.4215C295.763 41.5205 295.944 41.636 296.108 41.7679C297.161 42.4937 297.572 43.533 297.342 44.8857C297.243 45.4795 297.029 46.1229 296.7 46.8157C296.404 47.5085 296.026 48.1354 295.566 48.6962C295.138 49.2901 294.628 49.7685 294.037 50.1314C293.445 50.5273 292.803 50.7253 292.113 50.7253C291.422 50.7253 290.863 50.5603 290.436 50.2304C290.008 49.9334 289.679 49.5375 289.449 49.0427C289.219 48.5478 289.071 48.0034 289.005 47.4096C288.906 46.7827 288.857 46.2053 288.857 45.6775Z" fill="#FF5D39"/>
<path d="M315.587 46.6672C315.422 45.8094 315.39 44.9681 315.488 44.1433C315.817 41.7679 316.343 39.5575 317.067 37.5119C317.823 35.4334 318.908 33.4044 320.322 31.4249C320.684 30.93 321.128 30.3692 321.654 29.7423C322.18 29.1155 322.756 28.5381 323.381 28.0102C324.006 27.4494 324.647 26.9875 325.305 26.6246C325.995 26.2617 326.669 26.0802 327.327 26.0802C327.623 26.0802 327.952 26.1462 328.314 26.2782C328.675 26.3771 329.021 26.5256 329.349 26.7235C329.711 26.9215 330.007 27.1689 330.237 27.4659C330.468 27.7298 330.599 28.0267 330.632 28.3567C330.698 28.7856 330.583 29.1155 330.287 29.3464C330.155 29.4454 330.024 29.4949 329.892 29.4949C329.793 29.4949 329.695 29.4784 329.596 29.4454C329.53 29.3794 329.465 29.3134 329.399 29.2474C329.169 29.0825 328.988 28.9175 328.856 28.7526C328.725 28.5876 328.725 28.3237 328.856 27.9608C328.922 27.7958 328.905 27.6803 328.807 27.6143C328.708 27.5484 328.577 27.4989 328.412 27.4659C327.985 27.4659 327.607 27.5319 327.278 27.6638C326.982 27.7958 326.653 27.9772 326.291 28.2082C325.041 29 323.907 30.0063 322.887 31.227C321.868 32.4477 320.98 33.7838 320.224 35.2355C319.5 36.6542 318.892 38.1388 318.399 39.6894C317.938 41.2071 317.626 42.6752 317.461 44.0939C317.396 44.5887 317.363 45.0671 317.363 45.529C317.396 45.9909 317.461 46.4528 317.56 46.9147C317.626 47.2446 317.724 47.5745 317.856 47.9044C317.987 48.2344 318.234 48.3993 318.596 48.3993C319.286 48.3993 320.207 48.0529 321.358 47.3601C322.509 46.6672 323.693 45.8754 324.91 44.9846C326.16 44.0609 327.327 43.1371 328.412 42.2133C329.53 41.2565 330.369 40.5307 330.928 40.0358L335.22 36.3242C335.483 36.1263 335.762 36.0273 336.058 36.0273C336.321 36.0273 336.551 36.0933 336.749 36.2253C336.979 36.3572 337.127 36.5387 337.193 36.7696C337.193 36.9346 337.176 37.0336 337.143 37.0666L336.699 37.5119C335.45 38.5677 334.2 39.6234 332.95 40.6792C331.734 41.7349 330.5 42.7907 329.251 43.8464C328.659 44.3413 327.935 44.9187 327.08 45.5785C326.258 46.2053 325.387 46.8157 324.466 47.4096C323.545 47.9704 322.624 48.4488 321.704 48.8447C320.816 49.2736 319.993 49.4881 319.237 49.4881C318.349 49.4881 317.56 49.2406 316.869 48.7457C316.179 48.2838 315.751 47.591 315.587 46.6672Z" fill="#FF5D39"/>
<path d="M347.507 29.0495C347.31 29.1485 347.03 29.4289 346.668 29.8908C346.307 30.3197 345.912 30.8476 345.484 31.4744C345.057 32.0683 344.613 32.7281 344.153 33.4539C343.692 34.1797 343.265 34.8726 342.87 35.5324C342.475 36.1593 342.114 36.7366 341.785 37.2645C341.489 37.7924 341.275 38.1718 341.144 38.4027C340.782 38.9636 340.436 39.5245 340.108 40.0853C339.812 40.6132 339.483 41.1576 339.121 41.7184C338.792 42.1803 338.43 42.6257 338.036 43.0546C337.641 43.4835 337.131 43.698 336.507 43.698C336.145 43.698 335.8 43.599 335.471 43.401C335.175 43.1701 334.994 42.8731 334.928 42.5102C334.895 42.3453 334.862 42.1803 334.829 42.0154C334.829 41.8504 334.846 41.6854 334.879 41.5205C335.142 39.0461 335.569 36.7201 336.161 34.5427C336.786 32.3652 337.707 30.1877 338.924 28.0102C339.088 27.7133 339.318 27.5648 339.614 27.5648C339.779 27.5648 339.943 27.6143 340.108 27.7133C340.272 27.7793 340.42 27.8453 340.552 27.9113C340.848 28.0762 340.996 28.2082 340.996 28.3072C340.996 28.4061 340.88 28.6206 340.65 28.9505C340.124 29.7093 339.664 30.5836 339.269 31.5734C338.874 32.5301 338.529 33.5364 338.233 34.5922C337.937 35.6149 337.691 36.6542 337.493 37.7099C337.296 38.7327 337.131 39.6894 337 40.5802C336.934 40.7452 336.951 40.8276 337.049 40.8276C337.115 40.8606 337.148 40.8771 337.148 40.8771C337.214 40.8771 337.312 40.8111 337.444 40.6792C337.608 40.4152 337.773 40.1513 337.937 39.8874C338.134 39.5904 338.315 39.2935 338.48 38.9966C339.269 37.6769 340.058 36.3737 340.848 35.087C341.637 33.7673 342.475 32.4642 343.363 31.1775C343.955 30.2867 344.58 29.3959 345.238 28.5051C345.928 27.6143 346.652 26.7895 347.408 26.0307C347.77 25.6678 348.148 25.4863 348.543 25.4863C348.74 25.4863 348.954 25.5358 349.184 25.6348C349.743 25.8987 350.072 26.1627 350.171 26.4266C350.269 26.6906 350.253 27.0865 350.121 27.6143C349.957 28.3732 349.776 29.1485 349.579 29.9403C349.381 30.6991 349.184 31.4579 348.987 32.2167C348.724 33.1405 348.51 34.0643 348.345 34.9881C348.181 35.8788 348.033 36.7861 347.902 37.7099C347.869 37.7759 347.836 37.8749 347.803 38.0068C347.803 38.1058 347.852 38.1718 347.951 38.2048H348.049C348.181 38.2048 348.263 38.1553 348.296 38.0563C348.362 37.9573 348.428 37.8749 348.493 37.8089C349.809 35.8953 351.174 34.0478 352.588 32.2662C354.002 30.4516 355.597 28.7856 357.373 27.2679C357.669 26.971 358.014 26.8225 358.408 26.8225C358.704 26.8225 358.984 26.905 359.247 27.07C359.543 27.2679 359.79 27.4989 359.987 27.7628C360.184 27.9937 360.201 28.3237 360.036 28.7526C359.083 31.4249 358.211 34.0643 357.422 36.6707C356.665 39.277 356.139 42.0154 355.843 44.8857C355.778 45.4135 355.745 45.9414 355.745 46.4693C355.778 46.9642 355.843 47.459 355.942 47.9539C356.008 48.1189 356.123 48.2014 356.287 48.2014C356.452 48.2014 356.682 48.0694 356.978 47.8055C357.274 47.5745 357.586 47.2941 357.915 46.9642C358.277 46.6342 358.606 46.3208 358.902 46.0239C359.198 45.694 359.395 45.463 359.494 45.3311C360.151 44.5722 360.776 43.8134 361.368 43.0546C361.993 42.2628 362.634 41.4875 363.292 40.7287C363.851 40.1018 364.377 39.4915 364.87 38.8976C365.397 38.2708 365.939 37.6439 366.498 37.0171C366.959 36.5222 367.353 36.2747 367.682 36.2747C368.011 36.2747 368.34 36.4397 368.669 36.7696C368.866 36.9016 368.866 37.0995 368.669 37.3635C368.603 37.4625 368.521 37.5614 368.422 37.6604C368.323 37.7594 368.241 37.8584 368.175 37.9573C367.485 38.7162 366.827 39.475 366.202 40.2338C365.577 40.9926 364.953 41.7514 364.328 42.5102C363.67 43.335 363.012 44.1433 362.355 44.9352C361.697 45.694 361.023 46.4528 360.332 47.2116C359.839 47.7065 359.247 48.2344 358.556 48.7952C357.866 49.3561 357.142 49.6365 356.386 49.6365C355.893 49.6365 355.432 49.5046 355.005 49.2406C354.61 49.0097 354.331 48.6468 354.166 48.1519C354.002 47.624 353.903 47.0961 353.87 46.5683C353.837 46.0404 353.837 45.496 353.87 44.9352C354.035 43.0546 354.314 41.1906 354.709 39.343C355.136 37.4625 355.662 35.5819 356.287 33.7014C356.485 33.0745 356.698 32.4642 356.929 31.8703C357.159 31.2435 357.34 30.6166 357.471 29.9898C357.241 29.9898 356.846 30.2702 356.287 30.8311C355.761 31.3919 355.202 32.0353 354.61 32.7611C354.018 33.4539 353.459 34.1468 352.933 34.8396C352.44 35.5324 352.094 36.0108 351.897 36.2747C351.305 37.1325 350.713 37.9903 350.121 38.8481C349.529 39.7059 348.905 40.5472 348.247 41.372C347.984 41.6359 347.671 41.7679 347.31 41.7679C346.849 41.7679 346.471 41.6524 346.175 41.4215C345.879 41.1576 345.731 40.7782 345.731 40.2833C345.731 38.7327 345.879 37.182 346.175 35.6314C346.504 34.0808 346.866 32.5631 347.26 31.0785C347.523 30.2207 347.655 29.6598 347.655 29.3959C347.688 29.099 347.638 28.9835 347.507 29.0495ZM348.345 20.9829C349.2 20.818 350.023 20.6695 350.812 20.5375C351.634 20.3726 352.473 20.2241 353.328 20.0921C353.821 20.0262 354.314 19.9767 354.807 19.9437C355.301 19.8777 355.794 19.8447 356.287 19.8447C356.715 19.8447 357.126 19.8612 357.521 19.8942C357.915 19.9272 358.277 20.0262 358.606 20.1911C358.935 20.3231 359.214 20.5375 359.444 20.8345C359.674 21.0984 359.823 21.4943 359.888 22.0222C359.954 22.2861 359.987 22.5666 359.987 22.8635C360.02 23.1274 360.003 23.4079 359.938 23.7048C359.938 23.7708 359.872 23.8367 359.74 23.9027C359.609 23.9027 359.527 23.8862 359.494 23.8532C359.198 23.5893 359.05 23.2264 359.05 22.7645C359.05 22.4016 358.951 22.1542 358.754 22.0222C358.556 21.8902 358.31 21.8077 358.014 21.7747C357.816 21.7418 357.603 21.7253 357.373 21.7253C357.175 21.6923 356.978 21.6758 356.781 21.6758C356.518 21.6758 356.271 21.6923 356.041 21.7253C355.81 21.7253 355.564 21.7418 355.301 21.7747C354.38 21.9397 353.476 22.0882 352.588 22.2201C351.7 22.3521 350.795 22.5006 349.875 22.6655C349.118 22.7975 348.362 22.913 347.606 23.0119C346.849 23.1109 346.076 23.1934 345.287 23.2594C344.432 23.2594 343.643 23.0614 342.919 22.6655C342.196 22.2696 341.834 21.5438 341.834 20.4881C341.834 20.4221 341.851 20.3396 341.883 20.2406C341.916 20.1416 341.999 20.0757 342.13 20.0427C342.196 20.0097 342.262 20.0097 342.327 20.0427C342.393 20.0757 342.443 20.1086 342.475 20.1416C342.673 20.3396 342.821 20.5705 342.919 20.8345C342.985 21.0984 343.117 21.2634 343.314 21.3294C343.511 21.3953 343.741 21.4448 344.005 21.4778C344.761 21.4778 345.484 21.4283 346.175 21.3294C346.866 21.2304 347.589 21.1149 348.345 20.9829Z" fill="#FF5D39"/>
<path d="M364.652 57.9505C364.225 57.8845 364.011 57.6371 364.011 57.2082C364.077 55.7895 364.143 54.3709 364.208 52.9522C364.274 51.5666 364.406 50.1479 364.603 48.6962C365.228 44.3743 366.05 40.1348 367.069 35.9778C368.089 31.8208 369.24 27.6473 370.522 23.4573C370.654 23.0284 370.901 22.814 371.262 22.814C371.361 22.814 371.443 22.8305 371.509 22.8635C371.706 22.9295 371.838 22.979 371.904 23.0119C372.2 23.1769 372.364 23.3089 372.397 23.4079C372.463 23.5068 372.463 23.7378 372.397 24.1007C372.232 24.7605 372.052 25.4204 371.854 26.0802C371.69 26.7071 371.509 27.3504 371.312 28.0102C370.588 30.4516 369.93 32.8931 369.339 35.3345C368.779 37.7759 368.237 40.2338 367.711 42.7082C367.645 42.8732 367.596 43.0381 367.563 43.2031C367.53 43.368 367.563 43.533 367.661 43.698C367.859 43.566 367.99 43.4175 368.056 43.2526C368.155 43.0546 368.237 42.8732 368.303 42.7082C368.763 41.6524 369.421 40.3328 370.276 38.7491C371.131 37.1655 372.084 35.6479 373.137 34.1962C374.189 32.7116 375.324 31.4579 376.54 30.4352C377.757 29.3794 378.974 28.8515 380.191 28.8515C381.046 28.8515 381.753 29.132 382.312 29.6928C382.871 30.2207 383.167 30.9465 383.2 31.8703C383.2 32.6951 383.085 33.5199 382.855 34.3447C382.657 35.1365 382.411 35.9448 382.115 36.7696C381.95 37.0995 381.786 37.4295 381.621 37.7594C381.49 38.0563 381.342 38.3697 381.177 38.6997C381.112 38.8316 381.046 38.9471 380.98 39.0461C380.947 39.1451 380.964 39.2605 381.029 39.3925H381.177C381.309 39.3925 381.424 39.3595 381.523 39.2935C381.621 39.2275 381.736 39.1615 381.868 39.0956C382.361 38.8316 382.97 38.5347 383.693 38.2048C384.449 37.8419 385.222 37.4954 386.012 37.1655C386.801 36.8356 387.574 36.5552 388.33 36.3242C389.086 36.0933 389.744 35.9778 390.303 35.9778C390.468 35.9778 390.632 36.0108 390.796 36.0768C390.961 36.1428 391.125 36.2088 391.29 36.2747C391.717 36.5387 391.882 36.7861 391.783 37.0171C391.651 37.182 391.52 37.2645 391.388 37.2645C391.257 37.2315 391.109 37.2315 390.944 37.2645C390.583 37.3635 390.221 37.446 389.859 37.5119C389.497 37.5779 389.136 37.6934 388.774 37.8584C386.603 38.6832 384.417 39.6564 382.213 40.7782C380.043 41.8999 378.119 43.302 376.442 44.9846C376.179 45.2486 375.899 45.496 375.603 45.727C375.34 45.9579 375.077 46.1889 374.814 46.4198C374.452 46.6837 374.091 46.8157 373.729 46.8157C373.4 46.8157 373.087 46.7167 372.792 46.5188C372.66 46.4528 372.578 46.3538 372.545 46.2218C372.545 46.0569 372.611 45.9084 372.742 45.7765C372.94 45.6115 373.12 45.4465 373.285 45.2816C373.482 45.0836 373.696 44.9022 373.926 44.7372C374.814 44.0444 375.669 43.2031 376.491 42.2133C377.346 41.1906 378.103 40.1018 378.76 38.9471C379.451 37.7924 380.026 36.6047 380.487 35.384C380.947 34.1633 381.26 32.9755 381.424 31.8208C381.523 31.3589 381.523 30.897 381.424 30.4352C381.325 30.1382 381.128 29.9898 380.832 29.9898C380.503 29.9898 380.141 30.1052 379.747 30.3362C379.352 30.5341 378.958 30.7816 378.563 31.0785C378.201 31.3754 377.839 31.6889 377.478 32.0188C377.149 32.3487 376.886 32.6291 376.688 32.8601C375.373 34.3447 374.189 35.9283 373.137 37.6109C372.084 39.2935 371.147 41.0586 370.325 42.9061C369.536 44.7207 368.829 46.5848 368.204 48.4983C367.612 50.4118 367.086 52.3254 366.625 54.2389C366.395 55.1627 366.247 56.1195 366.182 57.1092C366.182 57.4721 366.083 57.7031 365.886 57.802C365.655 57.934 365.392 58 365.096 58C364.866 58 364.718 57.9835 364.652 57.9505Z" fill="#FF5D39"/>
<path d="M390.182 37.0666C389.82 36.5387 389.606 35.9283 389.54 35.2355C389.475 34.5427 389.508 33.8333 389.639 33.1075C389.771 32.3487 389.984 31.6229 390.28 30.93C390.609 30.2042 391.004 29.5609 391.464 29C392.286 28.0102 393.224 27.2514 394.276 26.7235C395.328 26.1627 396.479 25.8823 397.729 25.8823C398.781 25.8823 399.751 26.0802 400.639 26.4761C401.527 26.872 402.284 27.4164 402.908 28.1092C403.533 28.7691 403.994 29.5609 404.29 30.4846C404.618 31.3754 404.734 32.3487 404.635 33.4044C404.536 34.3282 404.355 35.2355 404.092 36.1263C403.862 36.9841 403.566 37.8419 403.204 38.6997C403.04 39.0296 403.089 39.1945 403.352 39.1945C403.615 39.1945 403.994 39.0791 404.487 38.8481C404.98 38.6172 405.49 38.3532 406.016 38.0563C406.575 37.7264 407.085 37.413 407.545 37.116C408.039 36.7861 408.4 36.5387 408.63 36.3737C408.894 36.2088 409.091 36.0768 409.222 35.9778C409.387 35.8788 409.551 35.8294 409.716 35.8294C409.979 35.8294 410.308 35.9613 410.702 36.2253C411.13 36.4892 411.097 36.7861 410.604 37.116C409.387 37.9738 408.121 38.7491 406.805 39.442C405.49 40.1018 404.092 40.6132 402.612 40.9761C402.284 41.0091 402.004 41.2071 401.774 41.57C401.379 42.2298 400.919 42.9226 400.393 43.6485C399.899 44.3413 399.34 44.9846 398.715 45.5785C398.091 46.1724 397.417 46.6672 396.693 47.0631C395.97 47.4261 395.197 47.6075 394.375 47.6075C393.224 47.6075 392.221 47.1786 391.366 46.3208C390.708 45.661 390.247 44.9022 389.984 44.0444C389.754 43.1866 389.672 42.2628 389.738 41.273C389.803 40.3493 389.968 39.475 390.231 38.6502C390.33 38.3532 390.379 38.0893 390.379 37.8584C390.412 37.5944 390.346 37.3305 390.182 37.0666ZM391.957 32.0683C391.53 33.058 391.333 34.0643 391.366 35.087C391.366 35.153 391.366 35.219 391.366 35.285C391.398 35.318 391.431 35.318 391.464 35.285C391.596 35.285 391.727 35.252 391.859 35.186C391.958 35.087 392.073 34.9056 392.204 34.6416C392.303 34.4767 392.451 34.2787 392.648 34.0478C392.845 33.7838 393.059 33.5364 393.289 33.3055C393.52 33.0415 393.75 32.8271 393.98 32.6621C394.243 32.4642 394.473 32.3652 394.671 32.3652C394.967 32.3652 395.328 32.5466 395.756 32.9096C395.986 33.1405 395.986 33.3385 395.756 33.5034C395.526 33.6354 395.345 33.7838 395.213 33.9488C395.147 34.0808 395.065 34.1962 394.967 34.2952C394.868 34.3612 394.786 34.4437 394.72 34.5427C394.292 35.0375 393.914 35.5489 393.585 36.0768C393.289 36.6047 393.01 37.149 392.747 37.7099C392.582 38.0728 392.632 38.3697 392.895 38.6007C393.52 39.1945 394.292 39.6399 395.213 39.9369C396.134 40.2008 397.022 40.3328 397.877 40.3328C398.568 40.3328 399.225 40.2668 399.85 40.1348C400.146 40.0688 400.442 39.7719 400.738 39.244C401.067 38.6832 401.346 38.0728 401.577 37.413C401.84 36.7201 402.053 36.0438 402.218 35.384C402.415 34.7241 402.53 34.2622 402.563 33.9983C402.728 33.1075 402.777 32.2497 402.711 31.4249C402.678 30.6001 402.464 29.8083 402.07 29.0495C401.346 27.6968 400.278 27.0205 398.863 27.0205C397.252 27.0205 395.854 27.5154 394.671 28.5051C393.487 29.4619 392.582 30.6496 391.957 32.0683ZM392.007 39.8874C391.579 41.438 391.629 42.9721 392.155 44.4898C392.221 44.6547 392.319 44.8692 392.451 45.1331C392.582 45.3641 392.73 45.595 392.895 45.8259C393.059 46.0569 393.24 46.2548 393.437 46.4198C393.668 46.5848 393.881 46.6672 394.079 46.6672C394.539 46.6672 395.032 46.4858 395.558 46.1229C396.118 45.727 396.644 45.2651 397.137 44.7372C397.663 44.1763 398.124 43.6155 398.518 43.0546C398.913 42.4608 399.192 41.9659 399.357 41.57C399.258 41.537 399.159 41.5205 399.061 41.5205C398.995 41.4875 398.913 41.471 398.814 41.471C396.512 41.372 394.506 40.7947 392.796 39.7389C392.763 39.7059 392.681 39.6564 392.549 39.5904C392.221 39.5904 392.04 39.6894 392.007 39.8874Z" fill="#FF5D39"/>
</svg>
