<svg width="456" height="143" viewBox="0 0 456 143" fill="none" xmlns="http://www.w3.org/2000/svg">
<path d="M172.016 50.316C171.532 50.7991 170.959 51.3425 170.295 51.9463C169.691 52.5502 169.027 53.1238 168.302 53.6672C167.577 54.1503 166.823 54.573 166.038 54.9353C165.253 55.2976 164.498 55.4787 163.773 55.4787C162.626 55.4787 161.72 55.1466 161.056 54.4824C160.392 53.8182 160.09 52.8823 160.15 51.6746C160.15 49.9235 160.543 48.0818 161.328 46.1496C162.052 44.157 163.049 42.0436 164.317 39.8094C165.585 37.5149 167.064 35.4317 168.755 33.5598C170.506 31.6879 172.408 30.1482 174.461 28.9405C176.574 27.6725 178.839 27.0385 181.254 27.0385C183.186 27.0385 184.877 27.4913 186.326 28.3971C186.87 28.7594 187.232 28.9405 187.413 28.9405C187.594 28.9405 187.775 28.8499 187.957 28.6688C188.198 28.4876 188.5 28.2461 188.862 27.9442C189.587 27.1592 190.311 26.3742 191.036 25.5893C191.761 24.8043 192.546 24.0797 193.391 23.4155C194.418 22.5701 195.233 22.1475 195.836 22.1475C196.138 22.1475 196.41 22.2078 196.652 22.3286C196.954 22.4494 197.286 22.6003 197.648 22.7815C198.735 23.4457 199.067 24.3816 198.644 25.5893C198.342 26.6158 198.04 27.6423 197.739 28.6688C197.437 29.6349 197.135 30.6312 196.833 31.6577C196.169 33.7108 195.504 35.7638 194.84 37.8168C194.236 39.8094 193.602 41.8624 192.938 43.9758C192.153 46.5723 191.459 49.1687 190.855 51.7652C190.251 54.3013 189.798 56.8977 189.496 59.5546C189.194 62.151 189.134 64.5965 189.315 66.8911C189.315 67.2534 189.345 67.6157 189.406 67.978C189.466 68.3402 189.557 68.7327 189.677 69.1554C189.798 69.7592 190.04 70.0008 190.402 69.88C190.764 69.8196 191.247 69.4875 191.851 68.8837C192.455 68.2799 193.089 67.5855 193.753 66.8005C194.418 66.0759 195.021 65.3513 195.565 64.6267C196.108 63.9625 196.501 63.4794 196.742 63.1775C198.493 60.7018 200.244 58.2563 201.996 55.841C203.807 53.4257 205.619 51.0104 207.43 48.5951C208.094 47.5686 208.789 46.6025 209.513 45.6967C210.238 44.7306 210.962 43.7645 211.687 42.7984C212.351 41.953 213.106 41.5303 213.951 41.5303C214.616 41.5303 215.219 41.802 215.763 42.3455C215.944 42.5266 215.944 42.7682 215.763 43.0701C215.702 43.1908 215.642 43.3116 215.582 43.4324C215.521 43.5531 215.431 43.6739 215.31 43.7947C212.774 47.1157 210.328 50.467 207.973 53.8484C205.619 57.2298 203.113 60.5509 200.456 63.8115C199.852 64.5361 199.278 65.2607 198.735 65.9853C198.191 66.7099 197.588 67.4043 196.923 68.0685C196.018 69.0347 194.961 69.9706 193.753 70.8763C192.606 71.8424 191.308 72.2953 189.859 72.2349C187.624 72.2349 186.296 71.2386 185.873 69.246C185.632 68.2195 185.481 67.1628 185.42 66.0759C185.36 65.0494 185.36 63.9927 185.42 62.9058C185.722 57.9544 186.538 53.0936 187.866 48.3234C189.194 43.5531 190.644 38.8433 192.214 34.1938C192.515 33.2881 192.787 32.4125 193.029 31.5672C193.27 30.6614 193.542 29.7859 193.844 28.9405C193.965 28.5782 193.874 28.3669 193.572 28.3065C193.391 28.3065 193.24 28.3971 193.119 28.5782C192.395 29.182 191.73 29.8463 191.127 30.5709C187.926 33.9523 184.756 37.2733 181.616 40.534C178.476 43.7947 175.276 47.0553 172.016 50.316ZM163.773 51.7652C163.773 52.2483 163.924 52.4898 164.226 52.4898C164.588 52.4898 165.313 52.0369 166.4 51.1312C167.487 50.2254 168.725 49.0782 170.113 47.6894C171.563 46.2402 173.072 44.7004 174.642 43.0701C176.272 41.3794 177.782 39.7792 179.171 38.2696C180.62 36.7601 181.858 35.4317 182.884 34.2844C183.911 33.1371 184.575 32.3823 184.877 32.02C185.239 31.6577 185.36 31.2351 185.239 30.752C184.998 29.6651 184.303 29.1217 183.156 29.1217C180.741 29.1217 178.476 29.8463 176.363 31.2954C174.31 32.7446 172.438 34.5561 170.747 36.7299C169.117 38.8433 167.728 41.1378 166.581 43.6135C165.434 46.0288 164.588 48.2328 164.045 50.2254C163.924 50.7085 163.864 51.0708 163.864 51.3123C163.803 51.3727 163.773 51.5237 163.773 51.7652Z" fill="#FF5D39"/>
<path d="M119.956 34.5561C119.775 34.7976 119.563 35.009 119.322 35.1901C119.141 35.3713 118.99 35.5826 118.869 35.8242C117.601 37.5752 116.333 39.2962 115.065 40.9869C113.857 42.6172 112.65 44.3079 111.442 46.059C110.597 47.2063 109.721 48.3536 108.815 49.5008C107.97 50.6481 107.125 51.7954 106.279 52.9426C105.615 53.788 104.83 54.6032 103.924 55.3882C103.079 56.1731 102.083 56.5656 100.935 56.5656C100.03 56.5656 99.2446 56.3845 98.5804 56.0222C97.9766 55.5995 97.6143 54.9051 97.4935 53.939C97.3124 53.0332 97.1916 52.1275 97.1312 51.2217C97.1312 50.2556 97.1916 49.2593 97.3124 48.2328C97.8558 40.2623 99.2748 32.171 101.569 23.9589C101.69 23.5966 101.841 23.1438 102.022 22.6003C102.203 21.9965 102.535 21.6946 103.019 21.6946C103.32 21.6946 103.622 21.7852 103.924 21.9663C104.287 22.1475 104.588 22.2984 104.83 22.4192C105.434 22.7815 105.615 23.3551 105.373 24.1401C104.105 28.548 103.079 32.956 102.294 37.3639C101.569 41.7115 101.116 46.1798 100.935 50.7689C100.935 51.1312 100.935 51.4935 100.935 51.8558C100.996 52.1577 101.056 52.4898 101.116 52.8521C101.116 53.0332 101.237 53.1238 101.479 53.1238C101.72 53.1238 102.022 52.8823 102.385 52.3992C102.807 51.9161 103.079 51.5538 103.2 51.3123C104.105 50.1047 104.981 48.9272 105.826 47.7799C106.732 46.5723 107.608 45.3646 108.453 44.157C110.204 41.6209 111.985 39.1452 113.797 36.7299C115.608 34.2542 117.51 31.8389 119.503 29.484C120.167 28.7594 120.892 28.3971 121.677 28.3971C121.858 28.3971 122.009 28.4273 122.13 28.4876C122.311 28.4876 122.492 28.5178 122.673 28.5782C123.518 28.8198 124.092 29.182 124.394 29.6651C124.756 30.0878 124.877 30.7822 124.756 31.7483C124.636 32.7748 124.485 33.7711 124.303 34.7373C124.122 35.643 123.971 36.6091 123.851 37.6356C123.549 39.3867 123.247 41.1378 122.945 42.8889C122.703 44.64 122.583 46.3911 122.583 48.1422C122.522 48.4441 122.492 48.7159 122.492 48.9574C122.492 49.1989 122.492 49.4405 122.492 49.682C122.552 49.9839 122.552 50.316 122.492 50.6783C122.492 51.0406 122.643 51.2519 122.945 51.3123C123.368 51.4331 123.669 51.3123 123.851 50.95C124.032 50.5273 124.213 50.1651 124.394 49.8631C126.447 46.844 128.379 43.7947 130.191 40.7151C132.002 37.6356 133.874 34.5561 135.806 31.4766C137.195 29.1217 138.614 26.7969 140.063 24.5024C141.573 22.1475 143.113 19.8227 144.683 17.5282C145.045 17.0451 145.558 16.8036 146.222 16.8036C146.947 16.8036 147.581 17.1357 148.124 17.7999C148.668 18.4037 148.849 19.0378 148.668 19.702C148.547 20.4266 148.366 21.1511 148.124 21.8757C147.883 22.5399 147.641 23.2344 147.4 23.9589C146.434 26.8573 145.558 29.7557 144.773 32.6541C143.988 35.492 143.264 38.3602 142.599 41.2586C141.996 44.0966 141.543 46.9044 141.241 49.682C140.999 52.3992 140.969 55.1164 141.15 57.8337C141.15 58.0752 141.18 58.4375 141.241 58.9205C141.301 59.4036 141.392 59.8867 141.513 60.3697C141.633 60.8528 141.784 61.3057 141.965 61.7283C142.207 62.0906 142.479 62.2718 142.781 62.2718C143.445 62.2718 144.23 61.9699 145.135 61.366C146.102 60.7622 147.068 60.0376 148.034 59.1923C149 58.3469 149.906 57.5015 150.751 56.6562C151.596 55.7505 152.23 55.056 152.653 54.573C154.163 52.8823 155.582 51.1614 156.91 49.4103C158.299 47.5988 159.688 45.8175 161.077 44.0664C161.378 43.7041 161.68 43.3418 161.982 42.9795C162.284 42.5568 162.586 42.1643 162.888 41.802C163.19 41.4397 163.552 41.2586 163.975 41.2586C164.277 41.2586 164.609 41.3794 164.971 41.6209C165.394 41.802 165.726 41.953 165.968 42.0738C166.511 42.3757 166.511 42.7984 165.968 43.3418C164.096 45.8175 162.224 48.263 160.352 50.6783C158.48 53.0936 156.457 55.4183 154.283 57.6525C153.559 58.3771 152.774 59.1319 151.929 59.9169C151.144 60.7018 150.268 61.3962 149.302 62.0001C148.336 62.6643 147.339 63.2077 146.313 63.6304C145.286 64.0531 144.23 64.2644 143.143 64.2644C141.029 64.2644 139.58 63.57 138.795 62.1812C138.01 60.7924 137.557 59.2225 137.437 57.4714C137.316 55.5995 137.286 53.7276 137.346 51.8558C137.467 49.9839 137.678 48.0818 137.98 46.1496C138.282 43.7343 138.735 41.319 139.339 38.9037C139.943 36.4884 140.577 34.073 141.241 31.6577C141.362 31.2351 141.482 30.8426 141.603 30.4803C141.784 30.0576 141.814 29.6047 141.694 29.1217C141.15 29.6047 140.758 30.0878 140.516 30.5709C140.275 30.9935 140.003 31.4162 139.701 31.8389C137.95 34.7373 136.229 37.6356 134.538 40.534C132.848 43.372 131.066 46.2402 129.194 49.1385C128.772 49.8028 128.349 50.4368 127.926 51.0406C127.504 51.584 127.081 52.1879 126.658 52.8521C126.115 53.6371 125.511 54.2107 124.847 54.573C124.243 54.8749 123.609 55.0259 122.945 55.0259C121.556 55.0259 120.56 54.6334 119.956 53.8484C119.412 53.003 119.08 51.9765 118.96 50.7689C118.839 49.5612 118.778 48.3838 118.778 47.2365C118.839 46.0892 118.99 44.9117 119.231 43.7041C119.412 42.4361 119.594 41.168 119.775 39.9C120.016 38.5716 120.228 37.2733 120.409 36.0053C120.53 35.4015 120.59 34.9788 120.59 34.7373C120.59 34.5561 120.469 34.4655 120.228 34.4655C120.107 34.4655 120.016 34.4957 119.956 34.5561ZM131.549 63.9021C130.221 62.9964 128.591 62.5435 126.658 62.5435C126.356 62.5435 126.055 62.5435 125.753 62.5435C125.451 62.5435 125.149 62.5737 124.847 62.6341C122.311 62.936 119.805 63.3285 117.329 63.8115C114.854 64.2946 112.348 64.7777 109.812 65.2607C108.906 65.3815 107.97 65.5023 107.004 65.623C106.098 65.8042 105.162 65.9551 104.196 66.0759C103.653 66.0155 103.139 65.9551 102.656 65.8947C102.173 65.8344 101.69 65.6834 101.207 65.4419C99.8183 64.8984 99.2144 63.8417 99.3956 62.2718C99.3956 62.0906 99.4861 61.9397 99.6673 61.8189C99.8484 61.6378 99.9994 61.6076 100.12 61.7283C101.026 62.2114 102.052 62.4529 103.2 62.4529C103.683 62.4529 104.196 62.4227 104.739 62.3624C105.283 62.302 105.796 62.2114 106.279 62.0906C108.211 61.7887 110.144 61.4566 112.076 61.0943C114.008 60.732 115.94 60.3697 117.873 60.0074C120.288 59.464 122.764 59.1017 125.3 58.9205C125.964 58.9205 126.689 58.9809 127.474 59.1017C128.319 59.2225 129.104 59.4338 129.828 59.7357C130.613 59.9772 131.278 60.3697 131.821 60.9132C132.425 61.3962 132.787 62.0604 132.908 62.9058C132.968 63.0869 132.999 63.2983 132.999 63.5398C133.059 63.7813 132.999 63.9927 132.817 64.1738C132.697 64.2946 132.516 64.355 132.274 64.355C132.093 64.355 131.851 64.204 131.549 63.9021Z" fill="#FF5D39"/>
<path d="M57.648 50.316C57.165 50.7991 56.5913 51.3425 55.9271 51.9463C55.3233 52.5502 54.6591 53.1238 53.9345 53.6672C53.2099 54.1503 52.4551 54.573 51.6701 54.9353C50.8852 55.2976 50.1304 55.4787 49.4058 55.4787C48.2585 55.4787 47.3528 55.1466 46.6886 54.4824C46.0243 53.8182 45.7224 52.8823 45.7828 51.6746C45.7828 49.9235 46.1753 48.0818 46.9603 46.1496C47.6849 44.157 48.6812 42.0436 49.9492 39.8094C51.2173 37.5149 52.6966 35.4317 54.3874 33.5598C56.1385 31.6879 58.0405 30.1482 60.0935 28.9405C62.2069 27.6725 64.4713 27.0385 66.8866 27.0385C68.8188 27.0385 70.5095 27.4913 71.9587 28.3971C72.5022 28.7594 72.8645 28.9405 73.0456 28.9405C73.2268 28.9405 73.4079 28.8499 73.5891 28.6688C73.8306 28.4876 74.1325 28.2461 74.4948 27.9442C75.2194 27.1592 75.944 26.3742 76.6686 25.5893C77.3932 24.8043 78.1781 24.0797 79.0235 23.4155C80.05 22.5701 80.8652 22.1475 81.469 22.1475C81.7709 22.1475 82.0426 22.2078 82.2842 22.3286C82.5861 22.4494 82.9182 22.6003 83.2805 22.7815C84.3674 23.4457 84.6995 24.3816 84.2768 25.5893C83.9749 26.6158 83.673 27.6423 83.3711 28.6688C83.0691 29.6349 82.7672 30.6312 82.4653 31.6577C81.8011 33.7108 81.1369 35.7638 80.4727 37.8168C79.8689 39.8094 79.2349 41.8624 78.5706 43.9758C77.7857 46.5723 77.0913 49.1687 76.4874 51.7652C75.8836 54.3013 75.4307 56.8977 75.1288 59.5546C74.8269 62.151 74.7665 64.5965 74.9477 66.8911C74.9477 67.2534 74.9779 67.6157 75.0382 67.978C75.0986 68.3402 75.1892 68.7327 75.31 69.1554C75.4307 69.7592 75.6723 70.0008 76.0346 69.88C76.3969 69.8196 76.8799 69.4875 77.4837 68.8837C78.0876 68.2799 78.7216 67.5855 79.3858 66.8005C80.05 66.0759 80.6538 65.3513 81.1973 64.6267C81.7407 63.9625 82.1332 63.4794 82.3748 63.1775C84.1259 60.7018 85.877 58.2563 87.6281 55.841C89.4395 53.4257 91.251 51.0104 93.0625 48.5951C93.7267 47.5686 94.4211 46.6025 95.1457 45.6967C95.8703 44.7306 96.5949 43.7645 97.3195 42.7984C97.9837 41.953 98.7385 41.5303 99.5838 41.5303C100.248 41.5303 100.852 41.802 101.395 42.3455C101.576 42.5266 101.576 42.7682 101.395 43.0701C101.335 43.1908 101.275 43.3116 101.214 43.4324C101.154 43.5531 101.063 43.6739 100.942 43.7947C98.4064 47.1157 95.9609 50.467 93.6059 53.8484C91.251 57.2298 88.7451 60.5509 86.0883 63.8115C85.4845 64.5361 84.9108 65.2607 84.3674 65.9853C83.8239 66.7099 83.2201 67.4043 82.5559 68.0685C81.6502 69.0347 80.5935 69.9706 79.3858 70.8763C78.2385 71.8424 76.9403 72.2953 75.4911 72.2349C73.257 72.2349 71.9285 71.2386 71.5059 69.246C71.2643 68.2195 71.1134 67.1628 71.053 66.0759C70.9926 65.0494 70.9926 63.9927 71.053 62.9058C71.3549 57.9544 72.1701 53.0936 73.4985 48.3234C74.8269 43.5531 76.2761 38.8433 77.846 34.1938C78.148 33.2881 78.4197 32.4125 78.6612 31.5672C78.9027 30.6614 79.1745 29.7859 79.4764 28.9405C79.5971 28.5782 79.5066 28.3669 79.2047 28.3065C79.0235 28.3065 78.8726 28.3971 78.7518 28.5782C78.0272 29.182 77.363 29.8463 76.7592 30.5709C73.5589 33.9523 70.3888 37.2733 67.2489 40.534C64.109 43.7947 60.9087 47.0553 57.648 50.316ZM49.4058 51.7652C49.4058 52.2483 49.5567 52.4898 49.8587 52.4898C50.2209 52.4898 50.9455 52.0369 52.0324 51.1312C53.1193 50.2254 54.3572 49.0782 55.746 47.6894C57.1952 46.2402 58.7047 44.7004 60.2747 43.0701C61.905 41.3794 63.4146 39.7792 64.8034 38.2696C66.2526 36.7601 67.4904 35.4317 68.5169 34.2844C69.5434 33.1371 70.2076 32.3823 70.5095 32.02C70.8718 31.6577 70.9926 31.2351 70.8718 30.752C70.6303 29.6651 69.9359 29.1217 68.7886 29.1217C66.3733 29.1217 64.109 29.8463 61.9956 31.2954C59.9426 32.7446 58.0707 34.5561 56.38 36.7299C54.7497 38.8433 53.3608 41.1378 52.2136 43.6135C51.0663 46.0288 50.2209 48.2328 49.6775 50.2254C49.5567 50.7085 49.4964 51.0708 49.4964 51.3123C49.436 51.3727 49.4058 51.5237 49.4058 51.7652Z" fill="#FF5D39"/>
<path d="M1.00738 41.3492C0.705469 40.5038 1.00738 39.9604 1.91312 39.7188C2.75848 39.4773 3.57365 39.2962 4.35862 39.1754C5.1436 38.9942 5.95877 38.8131 6.80412 38.6319C7.34757 38.4508 7.64948 38.1489 7.70987 37.7262C7.83063 37.3639 7.89101 37.0016 7.89101 36.6393C7.9514 36.277 8.01178 35.9147 8.07216 35.5524C8.73637 30.1784 9.52135 24.8345 10.4271 19.5208C11.3328 14.2071 12.2386 8.86326 13.1443 3.4892C13.2047 3.4892 13.2349 3.42882 13.2349 3.30805C13.3557 2.88537 13.416 2.46269 13.416 2.04001C13.416 1.61733 13.6576 1.31542 14.1406 1.13427C14.2614 1.13427 14.352 1.13427 14.4123 1.13427C14.5331 1.07389 14.6539 1.0437 14.7746 1.0437C15.1973 1.0437 15.5596 1.16446 15.8615 1.40599C16.1634 1.64753 16.4654 1.91925 16.7673 2.22116C16.9484 2.40231 17.0088 2.64384 16.9484 2.94576C16.888 3.18729 16.8277 3.42882 16.7673 3.67034C15.9219 8.98402 15.1067 14.2977 14.3218 19.6114C13.5368 24.8647 12.7518 30.1482 11.9668 35.4619C11.9065 35.7638 11.8763 36.0355 11.8763 36.277C11.8763 36.5185 11.8763 36.7903 11.8763 37.0922C11.8763 37.5752 12.148 37.8168 12.6914 37.8168L15.4087 37.5451C17.9447 37.3035 20.4204 37.0922 22.8357 36.911C25.3114 36.6695 27.8173 36.4884 30.3534 36.3676C31.0176 36.3072 31.5007 36.2166 31.8026 36.0959C32.1649 35.9751 32.4366 35.5524 32.6177 34.8278C32.9197 33.8013 33.1914 32.805 33.4329 31.8389C33.6744 30.8124 33.916 29.7859 34.1575 28.7594C35.3652 24.2307 36.603 19.7322 37.871 15.2638C39.1391 10.7351 40.5581 6.20642 42.128 1.67772C42.3092 1.19466 42.6413 0.953125 43.1243 0.953125C43.3659 0.953125 43.6074 1.01351 43.8489 1.13427C44.1508 1.19466 44.3924 1.28523 44.5735 1.40599C45.0566 1.70791 45.3283 1.97963 45.3887 2.22116C45.5095 2.40231 45.4793 2.82499 45.2981 3.4892C43.7282 8.68211 42.2186 13.8448 40.7694 18.9774C39.3806 24.1099 37.9918 29.3028 36.603 34.5561C36.4822 35.1599 36.4822 35.5524 36.603 35.7336C36.7238 35.8543 37.0861 35.9449 37.6899 36.0053C37.871 36.0053 38.0522 36.0053 38.2333 36.0053C38.4145 35.9449 38.5956 35.9147 38.7768 35.9147C39.5618 35.9751 40.1052 36.1563 40.4071 36.4582C40.709 36.6997 40.9204 37.2129 41.0411 37.9979C41.1619 38.5414 40.8298 38.8735 40.0448 38.9942C39.3806 39.115 38.7466 39.2056 38.1428 39.266C37.5993 39.266 36.9955 39.3263 36.3313 39.4471C35.7275 39.5679 35.3953 39.8698 35.335 40.3529C35.2142 40.5944 35.1236 40.8359 35.0632 41.0774C35.0632 41.319 35.0331 41.5907 34.9727 41.8926C34.3688 44.7306 33.765 47.5686 33.1612 50.4066C32.6177 53.1842 32.0441 55.992 31.4403 58.83C31.2591 59.7357 30.9874 60.5509 30.6251 61.2755C30.2628 62.0001 29.4778 62.3624 28.2702 62.3624C27.606 62.3624 27.3644 61.7585 27.5456 60.5509C28.089 57.5317 28.6325 54.5428 29.1759 51.584C29.7798 48.6253 30.3534 45.6062 30.8968 42.5266C31.1384 41.5001 31.2591 40.8057 31.2591 40.4434C31.2591 40.0811 30.8968 39.9 30.1722 39.9C29.9911 39.9 29.7798 39.9 29.5382 39.9C29.2967 39.9 29.025 39.9302 28.7231 39.9906C26.1266 40.2321 23.5301 40.4434 20.9337 40.6246C18.3372 40.8057 15.7408 41.0171 13.1443 41.2586C12.782 41.2586 12.3895 41.319 11.9668 41.4397C11.5442 41.5001 11.2724 41.7718 11.1517 42.2549C11.0309 42.738 10.9102 43.2512 10.7894 43.7947C10.729 44.2777 10.6384 44.7608 10.5177 45.2439C10.2761 46.693 10.0346 48.1422 9.79307 49.5914C9.55154 51.0406 9.27982 52.4898 8.9779 53.939H9.24963C8.94771 55.6901 8.6458 57.411 8.34388 59.1017C8.04197 60.7924 7.74006 62.5133 7.43814 64.2644C7.257 65.1702 6.8947 65.774 6.35125 66.0759C5.80781 66.3778 5.11341 66.5288 4.26805 66.5288C3.96614 66.4684 3.81518 66.2269 3.81518 65.8042C3.81518 65.3815 3.81518 64.9588 3.81518 64.5361C3.81518 64.1738 3.87556 63.7814 3.99633 63.3587C4.23786 61.6076 4.47939 59.8867 4.72092 58.1959C5.02283 56.5052 5.29456 54.7843 5.53609 53.0332C6.07953 49.7726 6.5324 46.5119 6.8947 43.2512C7.01546 42.587 6.80412 42.2549 6.26068 42.2549H5.89838C5.59647 42.3757 5.26436 42.4663 4.90207 42.5266C4.60015 42.587 4.29824 42.6474 3.99633 42.7078C3.3925 42.8285 2.96982 42.8889 2.72829 42.8889C2.24523 42.8889 1.91312 42.7682 1.73198 42.5266C1.49044 42.2851 1.24891 41.8926 1.00738 41.3492Z" fill="#FF5D39"/>
<path d="M411.423 113.792C411.052 110.538 411.447 107.308 412.609 104.1C412.702 103.914 412.795 103.682 412.888 103.403C413.027 103.124 413.167 102.845 413.306 102.566C413.492 102.287 413.678 102.055 413.864 101.869C414.096 101.683 414.329 101.59 414.561 101.59C414.84 101.59 415.119 101.683 415.398 101.869C415.677 102.008 415.909 102.171 416.095 102.357C416.421 102.589 416.444 102.891 416.165 103.263C414.863 105.495 414.143 107.679 414.003 109.818C413.864 111.91 414.027 114.002 414.492 116.094C414.538 116.279 414.608 116.558 414.701 116.93C414.84 117.256 415.003 117.581 415.189 117.906C415.375 118.278 415.584 118.581 415.816 118.813C416.049 119.045 416.305 119.162 416.583 119.162C416.769 119.162 416.932 119.138 417.072 119.092C418.187 118.674 419.373 117.814 420.628 116.512C421.883 115.21 423.068 113.769 424.184 112.189C425.346 110.562 426.369 108.935 427.252 107.308C428.182 105.681 428.833 104.356 429.205 103.333C429.065 103.101 428.902 103.008 428.716 103.054C428.53 103.054 428.321 103.008 428.089 102.915C427.113 102.682 426.276 102.264 425.579 101.659C424.881 101.009 424.347 100.265 423.975 99.4281C423.649 98.5449 423.51 97.5919 423.556 96.5692C423.603 95.5465 423.882 94.5238 424.393 93.5011C424.626 92.9898 424.928 92.4552 425.3 91.8973C425.718 91.3395 426.16 90.8281 426.625 90.3633C427.136 89.8519 427.67 89.4568 428.228 89.1779C428.833 88.8525 429.437 88.6898 430.041 88.6898C430.646 88.6898 431.343 88.9222 432.133 89.3871C433.063 90.0379 433.76 90.8281 434.225 91.7579C434.69 92.6876 434.876 93.78 434.783 95.0352C434.736 95.3141 434.69 95.6162 434.643 95.9416C434.597 96.2206 434.55 96.5227 434.504 96.8481C434.457 97.0806 434.411 97.313 434.365 97.5454C434.318 97.7314 434.388 97.8708 434.574 97.9638C434.62 98.0103 434.713 98.0335 434.853 98.0335C435.039 98.0335 435.201 97.9638 435.341 97.8243C435.527 97.6849 435.713 97.5687 435.899 97.4757C436.41 97.1968 436.898 96.8946 437.363 96.5692C437.828 96.2438 438.316 95.9184 438.827 95.593C439.06 95.4535 439.269 95.3141 439.455 95.1746C439.687 95.0352 439.92 94.8957 440.152 94.7562C440.942 94.2914 441.5 94.0589 441.826 94.0589C442.197 94.0589 442.686 94.3611 443.29 94.9654C443.708 95.4303 443.732 95.9881 443.36 96.6389C441.547 100.079 440.036 103.682 438.827 107.447C437.665 111.166 436.991 115.001 436.805 118.952C436.759 119.51 436.735 120.068 436.735 120.626C436.782 121.184 436.875 121.742 437.014 122.299C437.107 122.578 437.247 122.718 437.433 122.718C437.758 122.718 438.176 122.462 438.688 121.951C439.246 121.486 439.827 120.858 440.431 120.068C441.082 119.324 441.756 118.488 442.453 117.558C443.15 116.628 443.801 115.722 444.406 114.838C445.056 113.955 445.614 113.165 446.079 112.468C446.544 111.77 446.869 111.259 447.055 110.934C447.985 109.539 448.868 108.144 449.705 106.75C450.588 105.355 451.472 103.961 452.355 102.566C452.448 102.427 452.541 102.287 452.634 102.148C452.727 102.008 452.82 101.845 452.913 101.659C453.145 101.381 453.377 101.241 453.61 101.241C453.749 101.241 453.866 101.288 453.959 101.381C454.145 101.474 454.307 101.613 454.447 101.799C454.633 101.938 454.795 102.078 454.935 102.217C455.214 102.589 455.214 103.031 454.935 103.542C454.842 103.635 454.772 103.728 454.726 103.821C454.726 103.914 454.679 104.007 454.586 104.1C453.238 106.145 451.936 108.191 450.681 110.236C449.473 112.282 448.171 114.304 446.776 116.303C446.358 116.861 445.8 117.628 445.103 118.604C444.406 119.58 443.639 120.533 442.802 121.463C441.965 122.392 441.105 123.183 440.222 123.834C439.385 124.531 438.572 124.879 437.781 124.879C436.898 124.879 436.154 124.577 435.55 123.973C434.946 123.369 434.55 122.648 434.365 121.811C434.179 120.649 434.109 119.394 434.155 118.046C434.295 114.838 434.806 111.724 435.689 108.702C436.619 105.681 437.688 102.682 438.897 99.707C438.943 99.5676 438.967 99.4281 438.967 99.2887C439.013 99.1492 438.99 99.033 438.897 98.94C438.618 98.94 438.362 99.033 438.13 99.2189C437.897 99.4049 437.642 99.5676 437.363 99.707C436.852 99.986 436.317 100.288 435.759 100.614C435.248 100.939 434.69 101.241 434.086 101.52C433.249 101.892 432.621 102.543 432.203 103.472C431.831 104.309 431.343 105.332 430.739 106.541C430.181 107.703 429.507 108.935 428.716 110.236C427.973 111.491 427.136 112.746 426.206 114.002C425.323 115.257 424.393 116.372 423.417 117.349C422.441 118.371 421.441 119.185 420.419 119.789C419.396 120.394 418.396 120.696 417.42 120.696C416.444 120.696 415.607 120.486 414.91 120.068C414.213 119.696 413.608 119.185 413.097 118.534C412.632 117.883 412.26 117.139 411.981 116.303C411.702 115.466 411.516 114.629 411.423 113.792ZM425.857 98.2427C425.811 98.9865 425.95 99.6838 426.276 100.335C426.508 100.66 426.741 100.869 426.973 100.962C427.206 101.009 427.508 101.032 427.88 101.032C428.53 101.032 429.135 100.939 429.693 100.753C430.297 100.521 430.739 100.102 431.017 99.4979C431.296 98.847 431.506 98.1962 431.645 97.5454C431.831 96.8481 432.017 96.0811 432.203 95.2443C432.249 94.9189 432.296 94.5238 432.342 94.0589C432.435 93.5941 432.482 93.106 432.482 92.5946C432.389 91.3395 431.97 90.7119 431.227 90.7119C430.808 90.7119 430.227 90.9676 429.483 91.4789C427.159 93.3384 425.95 95.593 425.857 98.2427Z" fill="#FF5D39"/>
<path d="M380.487 107.308C380.302 105.681 380.302 104.007 380.487 102.287C380.534 101.962 380.627 101.381 380.766 100.544C380.906 99.7071 381.069 98.7541 381.254 97.6849C381.487 96.6157 381.743 95.5 382.022 94.3379C382.3 93.1757 382.579 92.1065 382.858 91.1303C383.184 90.1541 383.486 89.3406 383.765 88.6898C384.09 87.9925 384.416 87.6206 384.741 87.5741C385.02 87.5741 385.392 87.6438 385.857 87.7833C386.368 87.8763 386.647 88.1087 386.693 88.4806C386.74 88.6665 386.717 88.9222 386.624 89.2476C385.973 90.8746 385.438 92.5249 385.02 94.1984C384.648 95.8719 384.276 97.5454 383.904 99.2189C383.672 100.428 383.486 101.636 383.346 102.845C383.253 104.054 383.253 105.262 383.346 106.471C383.346 106.564 383.346 106.75 383.346 107.029C383.393 107.261 383.439 107.517 383.486 107.796C383.532 108.075 383.579 108.33 383.625 108.563C383.718 108.749 383.834 108.842 383.974 108.842C384.067 108.842 384.206 108.772 384.392 108.632C384.578 108.447 384.764 108.261 384.95 108.075C385.183 107.889 385.392 107.703 385.578 107.517C385.764 107.284 385.88 107.145 385.926 107.098C386.996 105.89 388.018 104.635 388.994 103.333C389.971 102.031 390.947 100.73 391.923 99.4281C392.946 98.08 393.969 96.7784 394.991 95.5233C396.06 94.2681 397.199 93.0363 398.408 91.8276C398.64 91.5952 398.896 91.3627 399.175 91.1303C399.454 90.8514 399.733 90.5957 400.012 90.3633C400.384 90.0379 400.802 89.8752 401.267 89.8752C401.592 89.8752 401.825 89.8984 401.964 89.9449C402.754 90.2238 403.243 90.526 403.429 90.8514C403.614 91.1768 403.591 91.7579 403.359 92.5946C402.987 93.9892 402.615 95.3838 402.243 96.7784C401.918 98.173 401.569 99.5676 401.197 100.962C400.639 103.194 400.244 105.402 400.012 107.587C399.779 109.725 399.733 111.887 399.872 114.071C399.872 114.211 399.896 114.443 399.942 114.769C399.989 115.094 400.035 115.443 400.081 115.815C400.174 116.14 400.291 116.442 400.43 116.721C400.57 117 400.732 117.139 400.918 117.139C401.011 117.139 401.151 117.07 401.337 116.93C401.523 116.744 401.709 116.535 401.894 116.303C402.127 116.07 402.336 115.861 402.522 115.675C402.754 115.443 402.894 115.28 402.94 115.187C403.731 114.211 404.474 113.235 405.172 112.258C405.916 111.236 406.683 110.213 407.473 109.19C408.217 108.168 408.937 107.168 409.634 106.192C410.332 105.169 411.052 104.147 411.796 103.124C412.029 102.798 412.238 102.496 412.424 102.217C412.656 101.938 412.889 101.636 413.121 101.311C413.4 100.892 413.772 100.683 414.237 100.683C414.469 100.683 414.701 100.73 414.934 100.823C415.213 100.916 415.468 101.009 415.701 101.102C416.166 101.334 416.212 101.659 415.84 102.078C415.236 102.915 414.632 103.751 414.027 104.588C413.423 105.425 412.819 106.262 412.214 107.098C410.866 108.958 409.565 110.724 408.31 112.398C407.054 114.025 405.66 115.675 404.126 117.349C403.614 117.86 403.033 118.255 402.383 118.534C401.732 118.813 401.058 118.952 400.36 118.952C399.663 118.952 399.059 118.766 398.547 118.395C398.036 118.023 397.664 117.488 397.432 116.791C397.153 115.908 396.967 115.024 396.874 114.141C396.827 113.211 396.804 112.282 396.804 111.352C396.804 109.121 397.013 106.819 397.432 104.449C397.897 102.078 398.454 99.8465 399.105 97.7546C399.245 97.2898 399.338 96.8481 399.384 96.4298C399.477 95.9649 399.57 95.5233 399.663 95.1049C399.71 94.919 399.64 94.826 399.454 94.826C399.268 94.8725 399.082 94.9887 398.896 95.1746C398.71 95.3606 398.571 95.5233 398.478 95.6627C397.827 96.453 397.153 97.2665 396.456 98.1033C395.758 98.94 395.084 99.7768 394.433 100.614C393.55 101.729 392.667 102.845 391.784 103.961C390.947 105.03 390.087 106.099 389.204 107.168C388.878 107.587 388.506 108.028 388.088 108.493C387.67 108.911 387.228 109.307 386.763 109.678C386.298 110.05 385.81 110.352 385.299 110.585C384.787 110.817 384.253 110.934 383.695 110.934C382.486 110.934 381.673 110.608 381.254 109.957C380.883 109.26 380.627 108.377 380.487 107.308Z" fill="#FF5D39"/>
<path d="M344.595 90.433C344.781 90.433 344.92 90.433 345.013 90.433C345.153 90.3865 345.269 90.2703 345.362 90.0844C345.548 89.8519 345.71 89.6195 345.85 89.3871C346.036 89.1081 346.198 88.8525 346.338 88.62C347.268 87.1789 348.197 85.7379 349.127 84.2968C350.103 82.8557 351.056 81.4146 351.986 79.9736C352.218 79.6017 352.451 79.2763 352.683 78.9973C352.916 78.6719 353.148 78.3465 353.381 78.0211C353.613 77.6027 353.962 77.3936 354.427 77.3936C354.938 77.3936 355.426 77.626 355.891 78.0908C356.356 78.5557 356.542 79.0438 356.449 79.5552C356.356 79.9271 356.263 80.299 356.17 80.6708C356.123 81.0427 356.054 81.4146 355.961 81.7865C355.031 84.9011 354.148 88.0157 353.311 91.1303C352.474 94.2449 351.707 97.406 351.01 100.614C350.917 100.985 350.987 101.218 351.219 101.311C351.451 101.125 351.637 100.916 351.777 100.683C351.916 100.451 352.056 100.218 352.195 99.986C352.8 99.0097 353.567 97.8476 354.496 96.4995C355.426 95.1514 356.449 93.8962 357.564 92.7341C358.68 91.5254 359.865 90.5027 361.121 89.666C362.376 88.8292 363.631 88.4108 364.886 88.4108C366.095 88.4108 367.141 88.806 368.024 89.5962C368.954 90.34 369.488 91.386 369.628 92.7341C369.721 93.5708 369.697 94.4308 369.558 95.3141C369.418 96.1508 369.209 96.9876 368.93 97.8243C368.326 99.8697 367.489 101.915 366.42 103.961C366.327 104.193 366.211 104.425 366.071 104.658C365.932 104.844 365.862 105.076 365.862 105.355C365.909 105.448 366.025 105.495 366.211 105.495C366.397 105.495 366.583 105.425 366.769 105.285C367.559 104.914 368.558 104.472 369.767 103.961C371.022 103.449 372.301 102.961 373.602 102.496C374.95 101.985 376.205 101.566 377.368 101.241C378.576 100.869 379.506 100.683 380.157 100.683C380.947 100.683 381.575 100.962 382.04 101.52C382.132 101.613 382.156 101.729 382.109 101.869C382.063 102.008 381.97 102.101 381.83 102.148C381.505 102.241 381.18 102.334 380.854 102.427C380.575 102.519 380.296 102.612 380.017 102.705C378.855 102.984 377.368 103.426 375.555 104.03C373.788 104.635 371.975 105.355 370.116 106.192C368.256 106.982 366.513 107.842 364.886 108.772C363.305 109.702 362.12 110.655 361.33 111.631C361.004 111.956 360.586 112.398 360.075 112.956C359.563 113.467 359.005 113.978 358.401 114.49C357.797 115.001 357.169 115.443 356.518 115.815C355.914 116.14 355.356 116.303 354.845 116.303C354.659 116.303 354.473 116.279 354.287 116.233C354.101 116.186 353.892 116.117 353.66 116.024C352.73 115.605 352.683 114.978 353.52 114.141C354.264 113.397 355.054 112.723 355.891 112.119C356.728 111.468 357.564 110.864 358.401 110.306C359.424 109.609 360.423 108.563 361.4 107.168C362.376 105.727 363.259 104.17 364.049 102.496C364.886 100.823 365.56 99.1724 366.071 97.5454C366.583 95.8719 366.908 94.4773 367.048 93.3616C367.187 92.6644 367.164 91.9438 366.978 91.2C366.838 90.4562 366.513 90.0844 366.002 90.0844C365.444 90.0844 364.793 90.2935 364.049 90.7119C363.352 91.1303 362.794 91.5022 362.376 91.8276C360.144 93.5476 358.122 95.8022 356.309 98.5914C354.496 101.381 352.869 104.356 351.428 107.517C350.034 110.678 348.848 113.862 347.872 117.07C346.896 120.277 346.152 123.206 345.641 125.856C345.176 128.226 344.781 130.574 344.455 132.898C344.13 135.223 343.781 137.57 343.409 139.941L343.2 141.196C343.061 141.847 342.828 142.265 342.503 142.451C342.177 142.684 341.689 142.8 341.038 142.8C340.248 142.8 339.876 142.358 339.923 141.475C340.155 138.686 340.481 135.897 340.899 133.108C341.317 130.365 341.922 127.645 342.712 124.949C342.805 124.484 342.898 124.019 342.991 123.555C343.13 123.09 343.247 122.602 343.34 122.09C343.851 119.766 344.316 117.465 344.734 115.187C345.199 112.909 345.687 110.585 346.198 108.214C346.989 104.774 347.802 101.357 348.639 97.9638C349.522 94.5238 350.429 91.1071 351.358 87.7135C351.451 87.4811 351.521 87.2254 351.568 86.9465C351.661 86.6676 351.637 86.4119 351.498 86.1795C351.265 86.2725 351.08 86.4119 350.94 86.5979C350.847 86.7838 350.731 86.9698 350.591 87.1557C350.22 87.7135 349.848 88.2946 349.476 88.8989C349.104 89.4568 348.732 90.0379 348.36 90.6422C347.988 91.1535 347.686 91.6649 347.454 92.1762C347.221 92.6876 347.221 93.2454 347.454 93.8498C347.547 94.0822 347.5 94.3146 347.314 94.547C347.175 94.733 346.966 94.826 346.687 94.826C346.268 94.826 345.92 94.9189 345.641 95.1049C345.408 95.2443 345.176 95.5 344.943 95.8719C344.571 96.4762 344.037 97.2897 343.34 98.3125C342.642 99.3352 341.852 100.451 340.969 101.659C340.132 102.822 339.225 104.007 338.249 105.216C337.273 106.424 336.274 107.517 335.251 108.493C334.228 109.469 333.229 110.283 332.253 110.934C331.323 111.538 330.44 111.84 329.603 111.84C328.766 111.84 328.046 111.631 327.441 111.212C326.837 110.748 326.488 110.074 326.395 109.19C326.256 107.935 326.372 106.587 326.744 105.146C327.162 103.565 327.813 101.892 328.696 100.125C329.58 98.3125 330.626 96.6389 331.834 95.1049C333.089 93.5708 334.484 92.3157 336.018 91.3395C337.598 90.3168 339.318 89.8054 341.178 89.8054C341.782 89.8054 342.433 89.8752 343.13 90.0146C343.363 90.0611 343.595 90.1308 343.828 90.2238C344.107 90.2703 344.362 90.34 344.595 90.433ZM343.967 92.1762C344.153 91.8508 344.083 91.6416 343.758 91.5487C343.34 91.4092 342.944 91.3395 342.573 91.3395C340.853 91.386 339.249 91.9438 337.761 93.013C336.274 94.0822 334.972 95.407 333.856 96.9876C332.741 98.5216 331.788 100.172 330.997 101.938C330.254 103.705 329.696 105.309 329.324 106.75C329.231 107.168 329.161 107.61 329.115 108.075C329.115 108.493 329.138 108.958 329.184 109.469C329.184 109.748 329.324 109.888 329.603 109.888C329.696 109.888 329.789 109.841 329.882 109.748C330.997 109.097 332.206 108.075 333.508 106.68C334.809 105.239 336.088 103.705 337.343 102.078C338.598 100.404 339.76 98.7541 340.829 97.127C341.945 95.4535 342.851 94.0589 343.549 92.9433C343.781 92.6179 343.921 92.3622 343.967 92.1762Z" fill="#FF5D39"/>
<path d="M300.321 102.148C299.81 101.404 299.508 100.544 299.415 99.5676C299.322 98.5914 299.368 97.5919 299.554 96.5692C299.74 95.5 300.042 94.4773 300.461 93.5011C300.926 92.4784 301.483 91.5719 302.134 90.7816C303.296 89.387 304.621 88.3179 306.109 87.5741C307.596 86.7838 309.223 86.3887 310.99 86.3887C312.477 86.3887 313.849 86.6676 315.104 87.2254C316.359 87.7833 317.428 88.5503 318.312 89.5265C319.195 90.4562 319.846 91.5719 320.264 92.8735C320.729 94.1287 320.892 95.5 320.752 96.9876C320.613 98.2892 320.357 99.5676 319.985 100.823C319.66 102.031 319.241 103.24 318.73 104.449C318.497 104.914 318.567 105.146 318.939 105.146C319.311 105.146 319.846 104.983 320.543 104.658C321.24 104.332 321.961 103.961 322.704 103.542C323.495 103.077 324.215 102.636 324.866 102.217C325.563 101.752 326.075 101.404 326.4 101.171C326.772 100.939 327.051 100.753 327.237 100.614C327.469 100.474 327.702 100.404 327.934 100.404C328.306 100.404 328.771 100.59 329.329 100.962C329.933 101.334 329.887 101.752 329.189 102.217C327.469 103.426 325.68 104.518 323.82 105.495C321.961 106.424 319.985 107.145 317.893 107.656C317.428 107.703 317.033 107.982 316.708 108.493C316.15 109.423 315.499 110.399 314.755 111.422C314.058 112.398 313.268 113.304 312.384 114.141C311.501 114.978 310.548 115.675 309.526 116.233C308.503 116.744 307.41 117 306.248 117C304.621 117 303.203 116.396 301.995 115.187C301.065 114.257 300.414 113.188 300.042 111.979C299.717 110.771 299.601 109.469 299.694 108.075C299.787 106.773 300.019 105.541 300.391 104.379C300.53 103.961 300.6 103.589 300.6 103.263C300.647 102.891 300.554 102.519 300.321 102.148ZM302.832 95.1049C302.227 96.4995 301.948 97.9173 301.995 99.3584C301.995 99.4514 301.995 99.5443 301.995 99.6373C302.041 99.6838 302.088 99.6838 302.134 99.6373C302.32 99.6373 302.506 99.5908 302.692 99.4978C302.832 99.3584 302.994 99.1027 303.18 98.7308C303.32 98.4984 303.529 98.2195 303.808 97.8941C304.087 97.5222 304.389 97.1735 304.714 96.8481C305.04 96.4762 305.365 96.1741 305.69 95.9416C306.062 95.6627 306.388 95.5233 306.667 95.5233C307.085 95.5233 307.596 95.7789 308.201 96.2903C308.526 96.6157 308.526 96.8946 308.201 97.127C307.875 97.313 307.62 97.5222 307.434 97.7546C307.341 97.9406 307.224 98.1033 307.085 98.2427C306.946 98.3357 306.829 98.4519 306.736 98.5914C306.132 99.2887 305.597 100.009 305.133 100.753C304.714 101.497 304.319 102.264 303.947 103.054C303.715 103.565 303.784 103.984 304.156 104.309C305.04 105.146 306.132 105.774 307.434 106.192C308.735 106.564 309.99 106.75 311.199 106.75C312.175 106.75 313.105 106.657 313.988 106.471C314.407 106.378 314.825 105.959 315.243 105.216C315.708 104.425 316.103 103.565 316.429 102.636C316.801 101.659 317.103 100.706 317.335 99.7768C317.614 98.847 317.777 98.1962 317.823 97.8243C318.056 96.5692 318.126 95.3606 318.033 94.1984C317.986 93.0362 317.684 91.9206 317.126 90.8514C316.103 88.9454 314.593 87.9925 312.594 87.9925C310.316 87.9925 308.34 88.6897 306.667 90.0843C304.993 91.4324 303.715 93.106 302.832 95.1049ZM302.901 106.122C302.297 108.307 302.367 110.469 303.11 112.607C303.203 112.839 303.343 113.142 303.529 113.514C303.715 113.839 303.924 114.164 304.156 114.49C304.389 114.815 304.644 115.094 304.923 115.326C305.249 115.559 305.551 115.675 305.83 115.675C306.481 115.675 307.178 115.419 307.922 114.908C308.712 114.35 309.456 113.699 310.153 112.956C310.897 112.165 311.548 111.375 312.106 110.585C312.663 109.748 313.059 109.051 313.291 108.493C313.152 108.446 313.012 108.423 312.873 108.423C312.78 108.377 312.663 108.354 312.524 108.354C309.27 108.214 306.434 107.401 304.017 105.913C303.97 105.866 303.854 105.797 303.668 105.704C303.203 105.704 302.948 105.843 302.901 106.122Z" fill="#FF5D39"/>
<path d="M272.981 115.675C272.748 114.466 272.702 113.281 272.841 112.119C273.306 108.772 274.05 105.657 275.073 102.775C276.142 99.8465 277.676 96.9876 279.675 94.1984C280.186 93.5011 280.814 92.7108 281.557 91.8276C282.301 90.9444 283.115 90.1308 283.998 89.3871C284.881 88.5968 285.788 87.946 286.717 87.4346C287.694 86.9233 288.647 86.6676 289.576 86.6676C289.995 86.6676 290.46 86.7606 290.971 86.9465C291.482 87.086 291.97 87.2952 292.435 87.5741C292.947 87.853 293.365 88.2017 293.69 88.62C294.016 88.9919 294.202 89.4103 294.248 89.8752C294.341 90.4795 294.179 90.9444 293.76 91.2698C293.574 91.4092 293.388 91.479 293.202 91.479C293.063 91.479 292.923 91.4557 292.784 91.4092C292.691 91.3162 292.598 91.2233 292.505 91.1303C292.18 90.8979 291.924 90.6654 291.738 90.433C291.552 90.2006 291.552 89.8287 291.738 89.3173C291.831 89.0849 291.808 88.9222 291.668 88.8292C291.529 88.7363 291.343 88.6665 291.11 88.62C290.506 88.62 289.971 88.713 289.507 88.899C289.088 89.0849 288.623 89.3406 288.112 89.666C286.346 90.7817 284.742 92.1995 283.301 93.9195C281.86 95.6395 280.604 97.5222 279.535 99.5676C278.513 101.567 277.653 103.658 276.955 105.843C276.304 107.982 275.863 110.05 275.63 112.049C275.537 112.746 275.491 113.421 275.491 114.071C275.537 114.722 275.63 115.373 275.77 116.024C275.863 116.489 276.002 116.954 276.188 117.418C276.374 117.883 276.723 118.116 277.234 118.116C278.21 118.116 279.512 117.628 281.139 116.651C282.766 115.675 284.44 114.559 286.16 113.304C287.926 112.003 289.576 110.701 291.11 109.399C292.691 108.051 293.876 107.029 294.667 106.331L300.733 101.102C301.105 100.823 301.5 100.683 301.919 100.683C302.29 100.683 302.616 100.776 302.895 100.962C303.22 101.148 303.429 101.404 303.522 101.729C303.522 101.962 303.499 102.101 303.453 102.148L302.825 102.775C301.059 104.263 299.292 105.75 297.526 107.238C295.806 108.725 294.062 110.213 292.296 111.701C291.459 112.398 290.436 113.211 289.228 114.141C288.066 115.024 286.834 115.884 285.532 116.721C284.23 117.511 282.929 118.185 281.627 118.743C280.372 119.348 279.21 119.65 278.141 119.65C276.886 119.65 275.77 119.301 274.794 118.604C273.817 117.953 273.213 116.977 272.981 115.675Z" fill="#FF5D39"/>
<path d="M248.092 102.148C247.581 101.404 247.279 100.544 247.186 99.5676C247.093 98.5914 247.139 97.5919 247.325 96.5692C247.511 95.5 247.813 94.4773 248.232 93.5011C248.696 92.4784 249.254 91.5719 249.905 90.7816C251.067 89.387 252.392 88.3179 253.88 87.5741C255.367 86.7838 256.994 86.3887 258.761 86.3887C260.248 86.3887 261.62 86.6676 262.875 87.2254C264.13 87.7833 265.199 88.5503 266.082 89.5265C266.966 90.4562 267.616 91.5719 268.035 92.8735C268.5 94.1287 268.662 95.5 268.523 96.9876C268.383 98.2892 268.128 99.5676 267.756 100.823C267.43 102.031 267.012 103.24 266.501 104.449C266.268 104.914 266.338 105.146 266.71 105.146C267.082 105.146 267.616 104.983 268.314 104.658C269.011 104.332 269.732 103.961 270.475 103.542C271.266 103.077 271.986 102.636 272.637 102.217C273.334 101.752 273.846 101.404 274.171 101.171C274.543 100.939 274.822 100.753 275.008 100.614C275.24 100.474 275.473 100.404 275.705 100.404C276.077 100.404 276.542 100.59 277.1 100.962C277.704 101.334 277.657 101.752 276.96 102.217C275.24 103.426 273.45 104.518 271.591 105.495C269.732 106.424 267.756 107.145 265.664 107.656C265.199 107.703 264.804 107.982 264.479 108.493C263.921 109.423 263.27 110.399 262.526 111.422C261.829 112.398 261.039 113.304 260.155 114.141C259.272 114.978 258.319 115.675 257.296 116.233C256.274 116.744 255.181 117 254.019 117C252.392 117 250.974 116.396 249.766 115.187C248.836 114.257 248.185 113.188 247.813 111.979C247.488 110.771 247.372 109.469 247.465 108.075C247.558 106.773 247.79 105.541 248.162 104.379C248.301 103.961 248.371 103.589 248.371 103.263C248.418 102.891 248.325 102.519 248.092 102.148ZM250.602 95.1049C249.998 96.4995 249.719 97.9173 249.766 99.3584C249.766 99.4514 249.766 99.5443 249.766 99.6373C249.812 99.6838 249.859 99.6838 249.905 99.6373C250.091 99.6373 250.277 99.5908 250.463 99.4978C250.602 99.3584 250.765 99.1027 250.951 98.7308C251.09 98.4984 251.3 98.2195 251.579 97.8941C251.858 97.5222 252.16 97.1735 252.485 96.8481C252.81 96.4762 253.136 96.1741 253.461 95.9416C253.833 95.6627 254.159 95.5233 254.438 95.5233C254.856 95.5233 255.367 95.7789 255.972 96.2903C256.297 96.6157 256.297 96.8946 255.972 97.127C255.646 97.313 255.39 97.5222 255.205 97.7546C255.112 97.9406 254.995 98.1033 254.856 98.2427C254.716 98.3357 254.6 98.4519 254.507 98.5914C253.903 99.2887 253.368 100.009 252.903 100.753C252.485 101.497 252.09 102.264 251.718 103.054C251.486 103.565 251.555 103.984 251.927 104.309C252.81 105.146 253.903 105.774 255.205 106.192C256.506 106.564 257.761 106.75 258.97 106.75C259.946 106.75 260.876 106.657 261.759 106.471C262.177 106.378 262.596 105.959 263.014 105.216C263.479 104.425 263.874 103.565 264.2 102.636C264.572 101.659 264.874 100.706 265.106 99.7768C265.385 98.847 265.548 98.1962 265.594 97.8243C265.827 96.5692 265.896 95.3606 265.803 94.1984C265.757 93.0362 265.455 91.9206 264.897 90.8514C263.874 88.9454 262.363 87.9925 260.365 87.9925C258.087 87.9925 256.111 88.6897 254.438 90.0843C252.764 91.4324 251.486 93.106 250.602 95.1049ZM250.672 106.122C250.068 108.307 250.138 110.469 250.881 112.607C250.974 112.839 251.114 113.142 251.3 113.514C251.486 113.839 251.695 114.164 251.927 114.49C252.16 114.815 252.415 115.094 252.694 115.326C253.02 115.559 253.322 115.675 253.601 115.675C254.252 115.675 254.949 115.419 255.693 114.908C256.483 114.35 257.227 113.699 257.924 112.956C258.668 112.165 259.319 111.375 259.876 110.585C260.434 109.748 260.829 109.051 261.062 108.493C260.922 108.446 260.783 108.423 260.643 108.423C260.55 108.377 260.434 108.354 260.295 108.354C257.041 108.214 254.205 107.401 251.788 105.913C251.741 105.866 251.625 105.797 251.439 105.704C250.974 105.704 250.719 105.843 250.672 106.122Z" fill="#FF5D39"/>
<path d="M217.539 108.911C217.167 107.935 216.981 106.936 216.981 105.913C216.981 104.89 217.143 103.844 217.469 102.775C217.701 102.124 218.143 101.845 218.794 101.938C219.026 101.938 219.235 101.985 219.421 102.078C219.654 102.171 219.863 102.264 220.049 102.357C220.374 102.496 220.49 102.752 220.397 103.124C220.258 103.635 220.142 104.147 220.049 104.658C219.956 105.169 219.886 105.681 219.84 106.192C219.793 106.889 219.863 107.54 220.049 108.144C220.142 108.284 220.258 108.354 220.397 108.354C220.583 108.354 220.816 108.191 221.095 107.865C221.42 107.494 221.629 107.238 221.722 107.098C223.442 104.495 225.186 101.962 226.952 99.4979C228.765 96.9876 230.601 94.4773 232.461 91.9671C232.74 91.5952 233.181 91.0141 233.786 90.2238C234.436 89.3871 235.11 88.5735 235.808 87.7833C236.552 86.9465 237.295 86.226 238.039 85.6217C238.783 84.9709 239.387 84.6454 239.852 84.6454C240.038 84.6454 240.201 84.6687 240.34 84.7152C240.48 84.7617 240.642 84.8314 240.828 84.9244C241.386 85.1568 241.804 85.5054 242.083 85.9703C242.362 86.3887 242.432 86.9698 242.293 87.7136C242.153 88.4108 242.014 89.1314 241.874 89.8752C241.735 90.5725 241.572 91.2698 241.386 91.9671C240.875 94.3379 240.34 96.6854 239.782 99.0098C239.271 101.334 238.829 103.682 238.457 106.052C238.225 107.354 238.039 108.656 237.9 109.957C237.76 111.212 237.69 112.468 237.69 113.723C237.737 114.048 237.76 114.35 237.76 114.629C237.76 114.908 237.783 115.21 237.83 115.536C237.923 115.768 238.039 115.884 238.179 115.884C238.364 115.884 238.667 115.675 239.085 115.257C239.503 114.792 239.968 114.234 240.48 113.583C240.991 112.886 241.526 112.142 242.083 111.352C242.641 110.562 243.153 109.795 243.617 109.051C244.129 108.261 244.57 107.587 244.942 107.029C245.314 106.424 245.57 106.006 245.709 105.774C246.174 105.03 246.616 104.309 247.034 103.612C247.453 102.915 247.894 102.194 248.359 101.45C248.638 100.985 248.987 100.753 249.405 100.753C249.637 100.753 249.87 100.823 250.102 100.962C250.335 101.055 250.567 101.148 250.8 101.241C251.218 101.474 251.311 101.799 251.079 102.217C251.079 102.264 251.055 102.31 251.009 102.357C251.009 102.357 251.009 102.38 251.009 102.427C249.8 104.379 248.615 106.331 247.453 108.284C246.29 110.19 245.012 112.049 243.617 113.862C243.153 114.466 242.664 115.048 242.153 115.605C241.688 116.117 241.2 116.651 240.689 117.209C239.852 117.953 238.922 118.325 237.9 118.325C237.249 118.325 236.644 118.139 236.087 117.767C235.529 117.395 235.18 116.814 235.041 116.024C234.948 115.373 234.878 114.699 234.832 114.002C234.832 113.304 234.855 112.607 234.901 111.91C234.994 109.957 235.203 108.028 235.529 106.122C235.854 104.17 236.226 102.217 236.644 100.265C236.97 98.7308 237.319 97.22 237.69 95.7325C238.062 94.1984 238.434 92.6644 238.806 91.1303C238.899 90.7119 238.992 90.2935 239.085 89.8752C239.224 89.4103 239.294 88.9687 239.294 88.5503C238.969 88.5503 238.736 88.6433 238.597 88.8292C238.457 88.9687 238.318 89.1081 238.179 89.2476C235.994 91.8973 233.925 94.5703 231.973 97.2665C230.067 99.9162 228.137 102.636 226.185 105.425C225.86 105.89 225.534 106.355 225.209 106.819C224.93 107.238 224.628 107.656 224.302 108.075C223.791 108.725 223.21 109.353 222.559 109.957C221.955 110.562 221.211 110.864 220.328 110.864C219.677 110.864 219.096 110.678 218.584 110.306C218.12 109.934 217.771 109.469 217.539 108.911Z" fill="#FF5D39"/>
<path d="M184.441 107.308C184.255 105.681 184.255 104.007 184.441 102.287C184.487 101.962 184.58 101.381 184.72 100.544C184.859 99.7071 185.022 98.7541 185.208 97.6849C185.44 96.6157 185.696 95.5 185.975 94.3379C186.254 93.1757 186.533 92.1065 186.812 91.1303C187.137 90.1541 187.439 89.3406 187.718 88.6898C188.044 87.9925 188.369 87.6206 188.694 87.5741C188.973 87.5741 189.345 87.6438 189.81 87.7833C190.321 87.8763 190.6 88.1087 190.647 88.4806C190.693 88.6665 190.67 88.9222 190.577 89.2476C189.926 90.8746 189.392 92.5249 188.973 94.1984C188.601 95.8719 188.23 97.5454 187.858 99.2189C187.625 100.428 187.439 101.636 187.3 102.845C187.207 104.054 187.207 105.262 187.3 106.471C187.3 106.564 187.3 106.75 187.3 107.029C187.346 107.261 187.393 107.517 187.439 107.796C187.486 108.075 187.532 108.33 187.579 108.563C187.672 108.749 187.788 108.842 187.927 108.842C188.02 108.842 188.16 108.772 188.346 108.632C188.532 108.447 188.718 108.261 188.904 108.075C189.136 107.889 189.345 107.703 189.531 107.517C189.717 107.284 189.833 107.145 189.88 107.098C190.949 105.89 191.972 104.635 192.948 103.333C193.924 102.031 194.9 100.73 195.877 99.4281C196.899 98.08 197.922 96.7784 198.945 95.5233C200.014 94.2681 201.153 93.0363 202.361 91.8276C202.594 91.5952 202.85 91.3627 203.128 91.1303C203.407 90.8514 203.686 90.5957 203.965 90.3633C204.337 90.0379 204.755 89.8752 205.22 89.8752C205.546 89.8752 205.778 89.8984 205.918 89.9449C206.708 90.2238 207.196 90.526 207.382 90.8514C207.568 91.1768 207.545 91.7579 207.312 92.5946C206.94 93.9892 206.568 95.3838 206.197 96.7784C205.871 98.173 205.523 99.5676 205.151 100.962C204.593 103.194 204.198 105.402 203.965 107.587C203.733 109.725 203.686 111.887 203.826 114.071C203.826 114.211 203.849 114.443 203.895 114.769C203.942 115.094 203.988 115.443 204.035 115.815C204.128 116.14 204.244 116.442 204.384 116.721C204.523 117 204.686 117.139 204.872 117.139C204.965 117.139 205.104 117.07 205.29 116.93C205.476 116.744 205.662 116.535 205.848 116.303C206.08 116.07 206.29 115.861 206.475 115.675C206.708 115.443 206.847 115.28 206.894 115.187C207.684 114.211 208.428 113.235 209.125 112.258C209.869 111.236 210.636 110.213 211.426 109.19C212.17 108.168 212.891 107.168 213.588 106.192C214.285 105.169 215.006 104.147 215.75 103.124C215.982 102.798 216.191 102.496 216.377 102.217C216.61 101.938 216.842 101.636 217.074 101.311C217.353 100.892 217.725 100.683 218.19 100.683C218.422 100.683 218.655 100.73 218.887 100.823C219.166 100.916 219.422 101.009 219.654 101.102C220.119 101.334 220.166 101.659 219.794 102.078C219.19 102.915 218.585 103.751 217.981 104.588C217.377 105.425 216.772 106.262 216.168 107.098C214.82 108.958 213.518 110.724 212.263 112.398C211.008 114.025 209.613 115.675 208.079 117.349C207.568 117.86 206.987 118.255 206.336 118.534C205.685 118.813 205.011 118.952 204.314 118.952C203.617 118.952 203.012 118.766 202.501 118.395C201.99 118.023 201.618 117.488 201.385 116.791C201.106 115.908 200.92 115.024 200.827 114.141C200.781 113.211 200.758 112.282 200.758 111.352C200.758 109.121 200.967 106.819 201.385 104.449C201.85 102.078 202.408 99.8465 203.059 97.7546C203.198 97.2898 203.291 96.8481 203.338 96.4298C203.431 95.9649 203.524 95.5233 203.617 95.1049C203.663 94.919 203.593 94.826 203.407 94.826C203.221 94.8725 203.035 94.9887 202.85 95.1746C202.664 95.3606 202.524 95.5233 202.431 95.6627C201.78 96.453 201.106 97.2665 200.409 98.1033C199.712 98.94 199.038 99.7768 198.387 100.614C197.504 101.729 196.62 102.845 195.737 103.961C194.9 105.03 194.04 106.099 193.157 107.168C192.832 107.587 192.46 108.028 192.041 108.493C191.623 108.911 191.181 109.307 190.717 109.678C190.252 110.05 189.764 110.352 189.252 110.585C188.741 110.817 188.206 110.934 187.648 110.934C186.44 110.934 185.626 110.608 185.208 109.957C184.836 109.26 184.58 108.377 184.441 107.308Z" fill="#FF5D39"/>
<path d="M148.548 90.433C148.734 90.433 148.874 90.433 148.966 90.433C149.106 90.3865 149.222 90.2703 149.315 90.0844C149.501 89.8519 149.664 89.6195 149.803 89.3871C149.989 89.1081 150.152 88.8525 150.291 88.62C151.221 87.1789 152.151 85.7379 153.081 84.2968C154.057 82.8557 155.01 81.4146 155.939 79.9736C156.172 79.6017 156.404 79.2763 156.637 78.9973C156.869 78.6719 157.102 78.3465 157.334 78.0211C157.566 77.6027 157.915 77.3936 158.38 77.3936C158.891 77.3936 159.379 77.626 159.844 78.0908C160.309 78.5557 160.495 79.0438 160.402 79.5552C160.309 79.9271 160.216 80.299 160.123 80.6708C160.077 81.0427 160.007 81.4146 159.914 81.7865C158.984 84.9011 158.101 88.0157 157.264 91.1303C156.428 94.2449 155.661 97.406 154.963 100.614C154.87 100.985 154.94 101.218 155.172 101.311C155.405 101.125 155.591 100.916 155.73 100.683C155.87 100.451 156.009 100.218 156.149 99.986C156.753 99.0097 157.52 97.8476 158.45 96.4995C159.379 95.1514 160.402 93.8962 161.518 92.7341C162.634 91.5254 163.819 90.5027 165.074 89.666C166.329 88.8292 167.584 88.4108 168.839 88.4108C170.048 88.4108 171.094 88.806 171.977 89.5962C172.907 90.34 173.442 91.386 173.581 92.7341C173.674 93.5708 173.651 94.4308 173.511 95.3141C173.372 96.1508 173.163 96.9876 172.884 97.8243C172.279 99.8697 171.443 101.915 170.374 103.961C170.281 104.193 170.164 104.425 170.025 104.658C169.885 104.844 169.816 105.076 169.816 105.355C169.862 105.448 169.978 105.495 170.164 105.495C170.35 105.495 170.536 105.425 170.722 105.285C171.512 104.914 172.512 104.472 173.721 103.961C174.976 103.449 176.254 102.961 177.556 102.496C178.904 101.985 180.159 101.566 181.321 101.241C182.53 100.869 183.459 100.683 184.11 100.683C184.901 100.683 185.528 100.962 185.993 101.52C186.086 101.613 186.109 101.729 186.063 101.869C186.016 102.008 185.923 102.101 185.784 102.148C185.458 102.241 185.133 102.334 184.808 102.427C184.529 102.519 184.25 102.612 183.971 102.705C182.809 102.984 181.321 103.426 179.508 104.03C177.742 104.635 175.929 105.355 174.069 106.192C172.21 106.982 170.466 107.842 168.839 108.772C167.259 109.702 166.074 110.655 165.283 111.631C164.958 111.956 164.539 112.398 164.028 112.956C163.517 113.467 162.959 113.978 162.355 114.49C161.75 115.001 161.123 115.443 160.472 115.815C159.868 116.14 159.31 116.303 158.798 116.303C158.612 116.303 158.426 116.279 158.241 116.233C158.055 116.186 157.845 116.117 157.613 116.024C156.683 115.605 156.637 114.978 157.474 114.141C158.217 113.397 159.008 112.723 159.844 112.119C160.681 111.468 161.518 110.864 162.355 110.306C163.377 109.609 164.377 108.563 165.353 107.168C166.329 105.727 167.212 104.17 168.003 102.496C168.839 100.823 169.514 99.1724 170.025 97.5454C170.536 95.8719 170.862 94.4773 171.001 93.3616C171.141 92.6644 171.117 91.9438 170.931 91.2C170.792 90.4562 170.466 90.0844 169.955 90.0844C169.397 90.0844 168.746 90.2935 168.003 90.7119C167.305 91.1303 166.748 91.5022 166.329 91.8276C164.098 93.5476 162.076 95.8022 160.263 98.5914C158.45 101.381 156.823 104.356 155.382 107.517C153.987 110.678 152.802 113.862 151.825 117.07C150.849 120.277 150.105 123.206 149.594 125.856C149.129 128.226 148.734 130.574 148.409 132.898C148.083 135.223 147.735 137.57 147.363 139.941L147.154 141.196C147.014 141.847 146.782 142.265 146.456 142.451C146.131 142.684 145.643 142.8 144.992 142.8C144.202 142.8 143.83 142.358 143.876 141.475C144.109 138.686 144.434 135.897 144.852 133.108C145.271 130.365 145.875 127.645 146.665 124.949C146.758 124.484 146.851 124.019 146.944 123.555C147.084 123.09 147.2 122.602 147.293 122.09C147.804 119.766 148.269 117.465 148.688 115.187C149.152 112.909 149.641 110.585 150.152 108.214C150.942 104.774 151.756 101.357 152.592 97.9638C153.476 94.5238 154.382 91.1071 155.312 87.7135C155.405 87.4811 155.475 87.2254 155.521 86.9465C155.614 86.6676 155.591 86.4119 155.451 86.1795C155.219 86.2725 155.033 86.4119 154.894 86.5979C154.801 86.7838 154.684 86.9698 154.545 87.1557C154.173 87.7135 153.801 88.2946 153.429 88.8989C153.057 89.4568 152.685 90.0379 152.314 90.6422C151.942 91.1535 151.639 91.6649 151.407 92.1762C151.175 92.6876 151.175 93.2454 151.407 93.8498C151.5 94.0822 151.454 94.3146 151.268 94.547C151.128 94.733 150.919 94.826 150.64 94.826C150.222 94.826 149.873 94.9189 149.594 95.1049C149.362 95.2443 149.129 95.5 148.897 95.8719C148.525 96.4762 147.99 97.2897 147.293 98.3125C146.596 99.3352 145.805 100.451 144.922 101.659C144.085 102.822 143.179 104.007 142.203 105.216C141.227 106.424 140.227 107.517 139.204 108.493C138.182 109.469 137.182 110.283 136.206 110.934C135.276 111.538 134.393 111.84 133.556 111.84C132.719 111.84 131.999 111.631 131.395 111.212C130.79 110.748 130.442 110.074 130.349 109.19C130.209 107.935 130.325 106.587 130.697 105.146C131.116 103.565 131.767 101.892 132.65 100.125C133.533 98.3125 134.579 96.6389 135.788 95.1049C137.043 93.5708 138.437 92.3157 139.971 91.3395C141.552 90.3168 143.272 89.8054 145.131 89.8054C145.736 89.8054 146.386 89.8752 147.084 90.0146C147.316 90.0611 147.549 90.1308 147.781 90.2238C148.06 90.2703 148.316 90.34 148.548 90.433ZM147.921 92.1762C148.106 91.8508 148.037 91.6416 147.711 91.5487C147.293 91.4092 146.898 91.3395 146.526 91.3395C144.806 91.386 143.202 91.9438 141.715 93.013C140.227 94.0822 138.925 95.407 137.81 96.9876C136.694 98.5216 135.741 100.172 134.951 101.938C134.207 103.705 133.649 105.309 133.277 106.75C133.184 107.168 133.115 107.61 133.068 108.075C133.068 108.493 133.091 108.958 133.138 109.469C133.138 109.748 133.277 109.888 133.556 109.888C133.649 109.888 133.742 109.841 133.835 109.748C134.951 109.097 136.159 108.075 137.461 106.68C138.763 105.239 140.041 103.705 141.296 102.078C142.551 100.404 143.714 98.7541 144.783 97.127C145.898 95.4535 146.805 94.0589 147.502 92.9433C147.735 92.6179 147.874 92.3622 147.921 92.1762Z" fill="#FF5D39"/>
</svg>
